<ttFont>
          <CharString index="0">
            154 845 rmoveto
            -67 -42 -29 -74 hvcurveto
            -106 -83 callsubr
            77 vlineto
            29 6 6 29 vhcurveto
            return
          </CharString>
          <CharString index="1">
            102 callgsubr
            -74 140 437 callsubr
            22 hlineto
            19 233 callsubr
            -147 101 callgsubr
            56 -139 -297 hlineto
            -68 callgsubr
            60 vlineto
            3 callsubr
            return
          </CharString>
          <CharString index="2">
            375 callsubr
            -264 -105 callgsubr
            return
          </CharString>
          <CharString index="3">
            -72 callsubr
            -32 -97 callsubr
            return
          </CharString>
          <CharString index="4">
            -67 29 -96 callsubr
            -22 167 callgsubr
            18 hvcurveto
            return
          </CharString>
          <CharString index="5">
            -17 callsubr
            155 141 callsubr
            return
          </CharString>
          <CharString index="6">
            -104 callsubr
            162 -80 callsubr
            return
          </CharString>
          <CharString index="7">
            -93 callsubr
            286 hmoveto
            -25 callgsubr
            return
          </CharString>
          <CharString index="8">
            -99 callgsubr
            18 vhcurveto
            return
          </CharString>
          <CharString index="9">
            166 callsubr
            -186 -62 callgsubr
            return
          </CharString>
          <CharString index="10">
            hlineto
            -101 callgsubr
            return
          </CharString>
          <CharString index="11">
            -32 92 vhcurveto
            105 hlineto
            92 30 -77 callsubr
            return
          </CharString>
          <CharString index="12">
            -97 271 -337 hlineto
            -103 callgsubr
            return
          </CharString>
          <CharString index="13">
            hlineto
            21 14 -87 callgsubr
          </CharString>
          <CharString index="14">
            rmoveto
            -61 -6 -32 -27 -65 vvcurveto
            -92 callgsubr
            166 hlineto
            return
          </CharString>
          <CharString index="15">
            -97 250 -91 callgsubr
            return
          </CharString>
          <CharString index="16">
            -18 -104 callgsubr
            return
          </CharString>
          <CharString index="17">
            hlineto
            -106 callgsubr
            return
          </CharString>
          <CharString index="18">
            rmoveto
            80 -66 callsubr
            6 20 vhcurveto
            46 hlineto
            19 377 callgsubr
            -80 vlineto
            -106 204 rmoveto
            -91 -35 146 callgsubr
            35 -42 91 vhcurveto
            112 13 callsubr
            48 -134 -33 vlineto
            -19 358 callgsubr
            -45 hlineto
            -20 -7 6 18 hvcurveto
            85 233 175 vlineto
            69 -36 502 callsubr
          </CharString>
          <CharString index="19">
            hlineto
            -66 callgsubr
            return
          </CharString>
          <CharString index="20">
            7 9 4 11 16 vvcurveto
            121 vlineto
            11 -2 8 return
          </CharString>
          <CharString index="21">
            65 callgsubr
            -285 -23 callsubr
            return
          </CharString>
          <CharString index="22">
            539 -7 callgsubr
          </CharString>
          <CharString index="23">
            166 callsubr
            -278 -56 callgsubr
            return
          </CharString>
          <CharString index="24">
            -65 -78 callgsubr
            return
          </CharString>
          <CharString index="25">
            62 -57 callgsubr
            return
          </CharString>
          <CharString index="26">
            186 callsubr
            102 170 callgsubr
            return
          </CharString>
          <CharString index="27">
            -99 callgsubr
            19 vhcurveto
            return
          </CharString>
          <CharString index="28">
            23 vlineto
            402 callgsubr
            146 466 callsubr
            -78 -36 -30 -68 hvcurveto
            -61 79 39 -99 callsubr
            6 hlineto
            19 233 callsubr
            -110 -43 callgsubr
            -119 return
          </CharString>
          <CharString index="29">
            -67 callsubr
            89 353 callgsubr
            return
          </CharString>
          <CharString index="30">
            268 callsubr
            -140 -21 callgsubr
            return
          </CharString>
          <CharString index="31">
            -21 -9 -41 callsubr
            return
          </CharString>
          <CharString index="32">
            -35 callsubr
            8 30 callgsubr
            -39 79 61 vlineto
            68 -37 156 callgsubr
            -36 -30 -68 hvcurveto
            return
          </CharString>
          <CharString index="33">
            -41 callgsubr
            -116 -50 callsubr
            return
          </CharString>
          <CharString index="34">
            -88 callsubr
            230 -38 callsubr
            return
          </CharString>
          <CharString index="35">
            -21 -45 callgsubr
            return
          </CharString>
          <CharString index="36">
            vlineto
            -21 344 callgsubr
            -230 -98 callgsubr
            116 -49 callgsubr
            18 vhcurveto
            35 97 -35 31 callsubr
            return
          </CharString>
          <CharString index="37">
            -32 -67 hvcurveto
            return
          </CharString>
          <CharString index="38">
            -3 callsubr
            -4 -16 -15 -34 vvcurveto
            return
          </CharString>
          <CharString index="39">
            9 hvcurveto
            -55 callgsubr
          </CharString>
          <CharString index="40">
            22 6 12 15 31 vvcurveto
            312 callgsubr
            -111 411 callgsubr
            -79 139 64 vlineto
            19 244 callgsubr
            23 297 callsubr
            -86 300 callgsubr
            -43 -96 43 hlineto
            19 509 callgsubr
            -85 -43 callgsubr
            -23 182 callgsubr
            72 -139 -86 vlineto
            -67 29 -39 92 vhcurveto
            111 hlineto
            402 callgsubr
            81 79 412 callsubr
            return
          </CharString>
          <CharString index="41">
            vlineto
            18 7 return
          </CharString>
          <CharString index="42">
            139 -59 callsubr
          </CharString>
          <CharString index="43">
            90 callsubr
            -17 hlineto
            -19 -7 7 18 hvcurveto
            35 -136 -43 441 callgsubr
            89 13 callsubr
            72 vlineto
            68 -34 41 -91 vhcurveto
            -57 hlineto
            -20 -7 6 18 hvcurveto
            60 -66 callsubr
            6 20 vhcurveto
            15 hlineto
            20 377 callgsubr
            -36 134 44 vlineto
            69 224 callsubr
            -85 373 callgsubr
            -75 vlineto
            -68 34 -42 91 vhcurveto
            57 384 callsubr
          </CharString>
          <CharString index="44">
            vlineto
            -70 callgsubr
            return
          </CharString>
          <CharString index="45">
            hlineto
            -98 callsubr
            return
          </CharString>
          <CharString index="46">
            -33 callsubr
            -4 -15 16 return
          </CharString>
          <CharString index="47">
            -61 callsubr
            -35 hhcurveto
            return
          </CharString>
          <CharString index="48">
            539 65 vlineto
            endchar
          </CharString>
          <CharString index="49">
            166 callsubr
            -52 callsubr
            return
          </CharString>
          <CharString index="50">
            vlineto
            -106 callgsubr
            return
          </CharString>
          <CharString index="51">
            313 callgsubr
            140 69 vlineto
            74 -43 29 -66 vhcurveto
            endchar
          </CharString>
          <CharString index="52">
            113 -139 -103 vlineto
            -21 -9 -5 -18 vhcurveto
            -23 -73 callsubr
            return
          </CharString>
          <CharString index="53">
            -37 callgsubr
            390 425 callsubr
            -273 334 callsubr
            return
          </CharString>
          <CharString index="54">
            -8 -102 callgsubr
            return
          </CharString>
          <CharString index="55">
            -133 43 callgsubr
            135 return
          </CharString>
          <CharString index="56">
            101 callsubr
            -57 180 callsubr
            70 hlineto
            19 233 callsubr
            -61 413 callsubr
            -19 vhcurveto
            -52 60 -140 -216 140 66 96 139 callgsubr
            78 vlineto
            7 -1 472 callgsubr
            return
          </CharString>
          <CharString index="57">
            vlineto
            -11 callgsubr
            return
          </CharString>
          <CharString index="58">
            -141 -97 97 hlineto
            19 233 callsubr
            -155 82 callgsubr
            64 -140 -74 vlineto
            -81 37 -32 99 189 callgsubr
            return
          </CharString>
          <CharString index="59">
            209 -54 callgsubr
            return
          </CharString>
          <CharString index="60">
            -40 callsubr
            338 84 vlineto
            return
          </CharString>
          <CharString index="61">
            -51 78 rlineto
            73 90 -136 27 callsubr
            return
          </CharString>
          <CharString index="62">
            -4 -6 -2 -9 -10 vvcurveto
            -145 5 callsubr
            -81 44 -32 93 vhcurveto
            return
          </CharString>
          <CharString index="63">
            -39 callsubr
            vlineto
            endchar
          </CharString>
          <CharString index="64">
            vlineto
            -24 callgsubr
            return
          </CharString>
          <CharString index="65">
            40 callgsubr
            65 return
          </CharString>
          <CharString index="66">
            -5 -18 vhcurveto
            return
          </CharString>
          <CharString index="67">
            202 -63 callgsubr
            return
          </CharString>
          <CharString index="68">
            -65 callgsubr
            77 return
          </CharString>
          <CharString index="69">
            vlineto
            -15 callsubr
            return
          </CharString>
          <CharString index="70">
            282 callsubr
            -40 139 69 vlineto
            74 -42 378 callgsubr
          </CharString>
          <CharString index="71">
            -91 callsubr
            90 -79 callsubr
            -197 hlineto
            -81 43 -32 93 vhcurveto
            return
          </CharString>
          <CharString index="72">
            -71 callgsubr
            -122 -44 callgsubr
            101 -80 callsubr
            return
          </CharString>
          <CharString index="73">
            13 vlineto
            93 -25 callsubr
            return
          </CharString>
          <CharString index="74">
            -35 -15 4 callgsubr
            return
          </CharString>
          <CharString index="75">
            116 callgsubr
            64 -89 rcurveline
            -97 -97 callsubr
            return
          </CharString>
          <CharString index="76">
            209 rmoveto
            -69 callgsubr
            86 hlineto
            return
          </CharString>
          <CharString index="77">
            vlineto
            -35 16 -15 -69 callsubr
            return
          </CharString>
          <CharString index="78">
            81 106 callgsubr
            return
          </CharString>
          <CharString index="79">
            149 callsubr
            -50 140 35 253 callgsubr
            return
          </CharString>
          <CharString index="80">
            -22 -9 -7 -19 vhcurveto
            -30 hlineto
            -18 -7 5 21 hvcurveto
            146 vlineto
            18 7 5 18 vhcurveto
            20 90 -62 242 callgsubr
            return
          </CharString>
          <CharString index="81">
            vlineto
            -81 36 -32 100 vhcurveto
            210 callsubr
            -92 223 callgsubr
            -82 vlineto
            -21 -8 -6 -18 vhcurveto
            -28 190 callsubr
          </CharString>
          <CharString index="82">
            26 38 67 hvcurveto
            105 -64 callgsubr
            return
          </CharString>
          <CharString index="83">
            rmoveto
            73 hlineto
            89 35 30 74 hvcurveto
            175 74 callgsubr
            231 97 -623 241 callgsubr
            584 509 rmoveto
            -92 -29 -39 -67 hvcurveto
            -74 139 161 callsubr
            -36 56 -140 -180 172 callsubr
            17 90 -59 176 callgsubr
            438 callsubr
            90 -139 -76 vlineto
            -18 -8 165 callsubr
            131 59 108 callgsubr
          </CharString>
          <CharString index="84">
            -63 callsubr
            188 return
          </CharString>
          <CharString index="85" raw="1">
            a21de206 ef0b  
          </CharString>
          <CharString index="86">
            -37 callgsubr
            334 rmoveto
            77 callgsubr
            -137 vlineto
            return
          </CharString>
          <CharString index="87">
            49 -31 -28 18 -68 hhcurveto
            -84 -97 22 hlineto
            37 15 -12 -38 23 hvcurveto
            54 -90 122 callgsubr
            return
          </CharString>
          <CharString index="88">
            227 callgsubr
            -379 340 callsubr
          </CharString>
          <CharString index="89">
            60 112 58 -112 306 callgsubr
            return
          </CharString>
          <CharString index="90">
            rmoveto
            -21 240 callgsubr
            -21 -88 callsubr
            return
          </CharString>
          <CharString index="91">
            -97 226 hlineto
            1 callsubr
            return
          </CharString>
          <CharString index="92">
            21 9 5 18 vhcurveto
            return
          </CharString>
          <CharString index="93">
            -379 140 539 return
          </CharString>
          <CharString index="94">
            -14 callgsubr
            -68 26 -34 68 -9 vhcurveto
            -90 -147 321 callgsubr
            148 rlineto
            68 8 26 34 68 226 callgsubr
          </CharString>
          <CharString index="95">
            121 -144 rlineto
            139 hlineto
            -121 144 rlineto
            return
          </CharString>
          <CharString index="96">
            -1 callgsubr
            18 vhcurveto
            21 hlineto
            return
          </CharString>
          <CharString index="97">
            rmoveto
            160 97 97 -515 334 callgsubr
            -73 30 -34 80 -5 391 callgsubr
            146 rlineto
            75 7 29 34 71 vvcurveto
            112 callsubr
          </CharString>
          <CharString index="98">
            -71 callgsubr
            -153 -98 callgsubr
            103 23 vlineto
            92 30 38 67 hvcurveto
            134 197 callsubr
            -47 78 callgsubr
            -61 79 39 -99 callsubr
            7 30 callgsubr
            -97 410 callgsubr
            -422 hlineto
            294 callsubr
            -111 -77 callgsubr
            113 69 -113 vlineto
            -81 44 -32 93 vhcurveto
            return
          </CharString>
          <CharString index="99">
            7 4 callsubr
            return
          </CharString>
          <CharString index="100">
            14 hlineto
            70 22 30 55 hvcurveto
            47 -113 -25 vlineto
            -16 -6 -6 -13 vhcurveto
            -22 -37 47 -53 hhcurveto
            -15 hlineto
            -69 -22 -34 -56 hvcurveto
            -42 113 return
          </CharString>
          <CharString index="101">
            288 callsubr
            -96 -47 callgsubr
            return
          </CharString>
          <CharString index="102">
            352 vlineto
            21 8 6 return
          </CharString>
          <CharString index="103">
            -74 46 -30 104 177 callgsubr
            272 -323 hlineto
            -22 -8 -7 -20 172 callgsubr
            -29 -32 -67 hvcurveto
            -170 vlineto
            -81 39 48 callsubr
            58 312 callsubr
            139 -85 callsubr
          </CharString>
          <CharString index="104">
            28 198 callsubr
            -28 return
          </CharString>
          <CharString index="105">
            -81 36 48 callgsubr
            return
          </CharString>
          <CharString index="106">
            -15 callgsubr
            -14 vhcurveto
            -22 -95 callgsubr
            return
          </CharString>
          <CharString index="107">
            -97 271 -314 vlineto
            -104 callsubr
            139 249 callgsubr
            -163 364 callsubr
            return
          </CharString>
          <CharString index="108">
            434 callgsubr
            -8 -7 -25 vhcurveto
            -24 140 107 callgsubr
            return
          </CharString>
          <CharString index="109">
            vlineto
            -15 callgsubr
            return
          </CharString>
          <CharString index="110">
            499 callgsubr
            186 482 callsubr
            return
          </CharString>
          <CharString index="111">
            -7 -26 hvcurveto
            return
          </CharString>
          <CharString index="112">
            -30 callsubr
            -146 vlineto
            return
          </CharString>
          <CharString index="113">
            rmoveto
            16 4 6 18 vhcurveto
            36 hlineto
            18 5 -6 -16 hvcurveto
            -11 vlineto
            -16 -5 -41 callsubr
            -36 hlineto
            -18 -4 5 16 hvcurveto
            79 -84 rmoveto
            67 24 30 52 hvcurveto
            16 vlineto
            51 -24 31 -67 vhcurveto
            -78 hlineto
            -67 -24 -31 -51 hvcurveto
            -16 vlineto
            -52 24 -30 67 vhcurveto
            return
          </CharString>
          <CharString index="114">
            -338 -102 callsubr
            return
          </CharString>
          <CharString index="115">
            -48 callsubr
            141 110 callgsubr
            52 323 callsubr
            -77 rmoveto
            -15 callgsubr
            return
          </CharString>
          <CharString index="116">
            hlineto
            10 callgsubr
            return
          </CharString>
          <CharString index="117">
            81 callgsubr
            -69 26 -33 69 -9 vhcurveto
            -90 -147 rlineto
            119 hlineto
            41 callsubr
            endchar
          </CharString>
          <CharString index="118">
            -97 271 -337 hlineto
            -107 callgsubr
            return
          </CharString>
          <CharString index="119">
            vlineto
            -35 16 -15 28 -4 73 callsubr
            return
          </CharString>
          <CharString index="120">
            hlineto
            47 callgsubr
            return
          </CharString>
          <CharString index="121">
            52 callsubr
            -114 vlineto
            -68 36 -30 78 vhcurveto
            return
          </CharString>
          <CharString index="122">
            -91 -36 146 callgsubr
            36 -42 91 vhcurveto
            102 13 callsubr
            67 -136 -48 441 callsubr
            -26 hlineto
            211 callsubr
            18 7 7 20 vhcurveto
            26 44 callsubr
            -48 return
          </CharString>
          <CharString index="123">
            139 callsubr
            48 -140 -62 vlineto
            return
          </CharString>
          <CharString index="124" raw="1">
            f72f490a 0b  
          </CharString>
          <CharString index="125">
            27 callgsubr
            -92 140 return
          </CharString>
          <CharString index="126">
            -49 callgsubr
            19 vhcurveto
            return
          </CharString>
          <CharString index="127">
            -4 hlineto
            28 -4 -22 16 -42 hhcurveto
            -111 hlineto
            375 callsubr
            -172 vlineto
            -81 39 48 callsubr
            111 hlineto
            42 22 16 28 4 hvcurveto
            4 hlineto
            -28 3 22 -16 42 hhcurveto
            110 hlineto
            76 39 -52 callgsubr
            172 vlineto
            return
          </CharString>
          <CharString index="128">
            -63 callgsubr
            315 84 vlineto
            return
          </CharString>
          <CharString index="129">
            61 hlineto
            23 15 -2 callgsubr
            return
          </CharString>
          <CharString index="130">
            hlineto
            -19 -53 callsubr
            return
          </CharString>
          <CharString index="131">
            326 callgsubr
            -329 rmoveto
            -21 -9 -5 -18 352 callgsubr
            102 170 callgsubr
            -304 204 rmoveto
            304 -107 -257 -65 callgsubr
            736 218 rmoveto
            -1147 11 callsubr
            308 -43 callsubr
            58 -2 hlineto
            -133 455 callgsubr
            135 88 271 callsubr
          </CharString>
          <CharString index="132">
            232 callsubr
            438 callsubr
            107 -139 -93 vlineto
            -18 -8 165 callsubr
            148 return
          </CharString>
          <CharString index="133">
            132 callgsubr
            197 hlineto
            28 return
          </CharString>
          <CharString index="134">
            hlineto
            -92 -29 29 callsubr
            return
          </CharString>
          <CharString index="135">
            14 -2 callgsubr
            -92 45 callgsubr
          </CharString>
          <CharString index="136">
            -70 callsubr
            279 callgsubr
            return
          </CharString>
          <CharString index="137">
            8 6 18 vhcurveto
            return
          </CharString>
          <CharString index="138">
            -98 callgsubr
            117 130 callsubr
            return
          </CharString>
          <CharString index="139">
            320 545 rmoveto
            57 -28 34 -74 vhcurveto
            -89 hlineto
            -74 -28 -34 -57 hvcurveto
            -184 vlineto
            -56 28 -35 74 vhcurveto
            89 hlineto
            74 28 35 56 hvcurveto
            454 -86 rmoveto
            57 -29 34 -74 vhcurveto
            -88 hlineto
            -74 -29 -34 -57 hvcurveto
            -184 vlineto
            -56 29 -35 74 vhcurveto
            88 hlineto
            74 29 35 56 hvcurveto
            -569 287 rmoveto
            -16 -5 -5 -17 vhcurveto
            -19 hlineto
            -17 340 callgsubr
            17 vhcurveto
            19 hlineto
            17 5 -6 -16 hvcurveto
            454 -420 rmoveto
            -16 -6 -5 -17 vhcurveto
            -18 hlineto
            -17 340 callgsubr
            17 vhcurveto
            18 hlineto
            17 6 -6 -16 hvcurveto
            -144 378 rmoveto
            -334 -636 rlineto
            105 hlineto
            336 636 rlineto
            return
          </CharString>
          <CharString index="140">
            -18 -7 -7 -20 vhcurveto
            return
          </CharString>
          <CharString index="141">
            rmoveto
            -21 -7 -5 -19 vhcurveto
            -38 hlineto
            -21 -5 8 18 hvcurveto
            152 vlineto
            18 5 8 21 vhcurveto
            38 0 callgsubr
            -21 hvcurveto
            -222 -152 rmoveto
            -18 -5 -8 -21 vhcurveto
            -38 -97 callsubr
            152 19 callsubr
            38 480 callsubr
            426 186 rmoveto
            97 -720 -97 420 -63 vlineto
            -36 -3 -18 -15 -3 -26 rrcurveto
            20 callsubr
            74 -33 33 -63 5 414 callsubr
          </CharString>
          <CharString index="142">
            31 -6 callsubr
            return
          </CharString>
          <CharString index="143">
            -6 -18 vhcurveto
            return
          </CharString>
          <CharString index="144">
            161 rlineto
            -104 -96 callgsubr
          </CharString>
          <CharString index="145">
            64 callgsubr
            16 12 395 callsubr
            return
          </CharString>
          <CharString index="146">
            -97 255 -63 -82 181 callgsubr
            -57 vlineto
            468 callsubr
            73 30 callgsubr
            -61 410 callgsubr
            -51 60 -140 -216 140 66 94 77 callsubr
            90 vlineto
            67 -30 32 -92 vhcurveto
            -72 -95 callgsubr
            29 -80 callsubr
            return
          </CharString>
          <CharString index="147">
            96 98 -53 38 callgsubr
            232 -49 callgsubr
            18 -74 callgsubr
            52 -379 340 callsubr
          </CharString>
          <CharString index="148">
            -18 callsubr
            -90 149 rlineto
            61 11 23 33 65 vvcurveto
            -55 callsubr
            return
          </CharString>
          <CharString index="149">
            rmoveto
            -21 -9 504 callsubr
            return
          </CharString>
          <CharString index="150">
            rmoveto
            -76 callsubr
            return
          </CharString>
          <CharString index="151">
            hlineto
            92 callsubr
            return
          </CharString>
          <CharString index="152">
            22 callgsubr
            45 27 20 36 9 hvcurveto
            -56 return
          </CharString>
          <CharString index="153">
            176 callsubr
            52 callgsubr
            return
          </CharString>
          <CharString index="154">
            -98 callgsubr
            155 115 callsubr
            97 -61 hlineto
            return
          </CharString>
          <CharString index="155">
            -32 76 vhcurveto
            return
          </CharString>
          <CharString index="156">
            -275 hlineto
            -88 callgsubr
            275 -355 129 callgsubr
            -188 vlineto
            -2 callsubr
            return
          </CharString>
          <CharString index="157">
            vlineto
            -34 99 callgsubr
            -110 vlineto
            -81 44 -32 93 vhcurveto
            return
          </CharString>
          <CharString index="158">
            17 callgsubr
            -19 -7 5 21 hvcurveto
            return
          </CharString>
          <CharString index="159">
            -4 vlineto
            -28 -3 -16 -15 -35 vvcurveto
            return
          </CharString>
          <CharString index="160">
            vlineto
            -35 callsubr
            7 hlineto
            19 268 callgsubr
            78 61 vlineto
            68 -36 156 callgsubr
            -37 -30 -68 hvcurveto
            -142 vlineto
            -35 99 callgsubr
            -17 vlineto
            64 callgsubr
            17 12 hvcurveto
            -18 422 callgsubr
            return
          </CharString>
          <CharString index="161">
            rmoveto
            -867 285 callsubr
            98 -186 331 callsubr
            -312 348 callsubr
            134 -30 callgsubr
            -158 vlineto
            -65 25 -33 50 -11 vhcurveto
            -104 -163 rlineto
            147 hlineto
            104 166 rlineto
            -109 138 -59 callsubr
          </CharString>
          <CharString index="162">
            rmoveto
            -867 -97 226 hlineto
            -86 callgsubr
            272 -323 hlineto
            -27 callsubr
            -105 138 -59 callsubr
          </CharString>
          <CharString index="163">
            vlineto
            16 callgsubr
          </CharString>
          <CharString index="164">
            413 callgsubr
            19 vhcurveto
            49 -178 hlineto
            -21 240 callgsubr
            -21 -88 callsubr
            return
          </CharString>
          <CharString index="165">
            hlineto
            67 -30 494 callgsubr
            -29 -39 -67 hvcurveto
            -50 139 35 vlineto
            19 7 5 19 409 callgsubr
            return
          </CharString>
          <CharString index="166">
            rmoveto
            97 -682 0 callsubr
            352 -43 callsubr
            33 hlineto
            18 7 -5 -21 hvcurveto
            -139 -47 callgsubr
            -18 464 callsubr
            163 vlineto
            81 -40 32 -76 -27 callgsubr
          </CharString>
          <CharString index="167">
            161 callgsubr
            432 300 rmoveto
            -204 -203 -89 101 -33 callgsubr
            -86 -99 251 callsubr
            -77 100 callgsubr
            78 89 -88 67 callsubr
          </CharString>
          <CharString index="168">
            -97 62 72 callgsubr
            return
          </CharString>
          <CharString index="169">
            rmoveto
            439 callgsubr
            -143 vlineto
            -18 -7 -6 -19 vhcurveto
            -77 hlineto
            125 -339 rmoveto
            153 hlineto
            -112 242 rlineto
            57 13 23 38 55 vvcurveto
            178 478 callgsubr
            -262 446 callgsubr
            238 25 hlineto
            endchar
          </CharString>
          <CharString index="170">
            rlineto
            137 hlineto
            172 180 rlineto
            -109 -96 callgsubr
          </CharString>
          <CharString index="171">
            -97 callsubr
            81 19 callsubr
            43 97 -43 -97 callsubr
            75 vlineto
            return
          </CharString>
          <CharString index="172">
            209 446 callsubr
            return
          </CharString>
          <CharString index="173">
            -97 271 -337 vlineto
            -107 callgsubr
            return
          </CharString>
          <CharString index="174">
            vlineto
            -310 -319 rlineto
            138 hlineto
            172 180 rlineto
            -109 -65 callsubr
          </CharString>
          <CharString index="175">
            97 callsubr
            412 257 rmoveto
            return
          </CharString>
          <CharString index="176">
            19 callgsubr
            376 24 callgsubr
            return
          </CharString>
          <CharString index="177">
            167 105 -167 155 196 105 -339 -636 347 105 return
          </CharString>
          <CharString index="178">
            374 callsubr
            -162 -47 callgsubr
            -18 464 callsubr
            186 vlineto
            81 return
          </CharString>
          <CharString index="179">
            422 callsubr
            -84 23 callsubr
            95 -49 callgsubr
            18 vhcurveto
            return
          </CharString>
          <CharString index="180">
            vhcurveto
            52 callsubr
            return
          </CharString>
          <CharString index="181">
            rmoveto
            -72 callsubr
            -80 -97 callsubr
            63 19 callsubr
            43 97 -43 -97 callsubr
            70 482 callgsubr
            90 hlineto
            205 97 rmoveto
            -539 -97 70 498 callgsubr
            -96 vlineto
            -34 17 -16 485 callgsubr
            -106 vlineto
            -67 33 -32 69 vhcurveto
            23 419 callsubr
            65 vlineto
            endchar
          </CharString>
          <CharString index="182">
            57 callsubr
            -139 -10 rmoveto
            -81 36 -32 100 vhcurveto
            216 callgsubr
            -92 -29 -32 -67 hvcurveto
            return
          </CharString>
          <CharString index="183">
            -48 callsubr
            89 13 vlineto
            92 -25 callsubr
            86 hlineto
            return
          </CharString>
          <CharString index="184">
            hlineto
            117 callgsubr
            return
          </CharString>
          <CharString index="185">
            -63 -93 vlineto
            41 callgsubr
            return
          </CharString>
          <CharString index="186">
            -130 hlineto
            25 -60 22 -52 13 -34 24 -42 rlinecurve
            -5 hlineto
            -28 45 -26 34 -46 56 -43 53 rcurveline
            -167 hlineto
            return
          </CharString>
          <CharString index="187">
            -64 -219 -53 callgsubr
            return
          </CharString>
          <CharString index="188">
            vhcurveto
            -89 -146 28 callgsubr
            return
          </CharString>
          <CharString index="189">
            -11 200 349 rmoveto
            -20 -7 6 19 hvcurveto
            132 24 callgsubr
            43 222 callgsubr
            -157 vlineto
            -109 287 rmoveto
            243 callgsubr
            -165 vlineto
            -68 36 -42 91 vhcurveto
            109 -121 hlineto
            335 callgsubr
            -38 19 callgsubr
            63 -139 -82 244 callsubr
            91 vhcurveto
            116 hlineto
            164 callgsubr
          </CharString>
          <CharString index="190">
            -89 6 -24 1 callgsubr
            return
          </CharString>
          <CharString index="191">
            rmoveto
            -89 96 89 hlineto
            -228 -271 186 callsubr
            54 253 callgsubr
            18 vhcurveto
            68 hlineto
            432 290 rmoveto
            -704 -97 272 -96 396 callgsubr
            -86 100 callgsubr
            88 89 -98 67 callsubr
          </CharString>
          <CharString index="192">
            429 callgsubr
            -187 hlineto
            305 callgsubr
            97 hlineto
            -100 239 callsubr
            return
          </CharString>
          <CharString index="193">
            -71 callgsubr
            -123 -98 callgsubr
            70 -49 callgsubr
            18 vhcurveto
            69 97 -69 -98 callgsubr
            101 -99 callsubr
            8 hlineto
            19 268 callgsubr
            78 61 vlineto
            68 -36 156 callgsubr
            -37 -30 -68 hvcurveto
            -142 12 callsubr
            -114 vlineto
            -68 37 -30 78 vhcurveto
            183 hlineto
            return
          </CharString>
          <CharString index="194">
            38 205 539 rmoveto
            113 -78 hlineto
            -46 9 -32 0 vhcurveto
            0 -16 38 -34 37 vhcurveto
            -96 -38 rmoveto
            195 callgsubr
            82 -94 rlineto
            435 callgsubr
            return
          </CharString>
          <CharString index="195">
            160 callsubr
            -61 hlineto
            return
          </CharString>
          <CharString index="196">
            -97 65 -348 hlineto
            -81 39 48 callsubr
            return
          </CharString>
          <CharString index="197">
            rmoveto
            33 callsubr
            return
          </CharString>
          <CharString index="198">
            vlineto
            7 8 4 12 15 vvcurveto
            112 vlineto
            79 -36 33 -101 vhcurveto
            -75 hlineto
            -101 -35 -33 -79 hvcurveto
            -123 vlineto
            -75 32 -34 91 -3 vhcurveto
            -154 -141 rlineto
            161 hlineto
            152 141 rlineto
            return
          </CharString>
          <CharString index="199">
            20 151 callgsubr
            return
          </CharString>
          <CharString index="200">
            201 callsubr
            50 hlineto
            23 15 -2 callgsubr
            -81 -88 vlineto
            -68 -36 -26 -73 hvcurveto
            -51 105 36 -49 callgsubr
            18 vhcurveto
            62 -114 126 475 -126 -82 hlineto
            168 callgsubr
          </CharString>
          <CharString index="201">
            328 callsubr
            -78 82 callgsubr
            17 -140 -27 vlineto
            -81 37 -32 99 vhcurveto
            82 hlineto
            86 38 23 58 10 hvcurveto
            75 hlineto
            -297 -307 63 callsubr
          </CharString>
          <CharString index="202">
            -71 callgsubr
            -34 -98 callgsubr
            152 -49 callgsubr
            18 vhcurveto
            29 97 -252 192 callsubr
            return
          </CharString>
          <CharString index="203">
            -7 81 callsubr
            -89 147 rlineto
            return
          </CharString>
          <CharString index="204">
            229 callsubr
            155 257 callgsubr
            return
          </CharString>
          <CharString index="205">
            -97 62 -348 hlineto
            169 callgsubr
            return
          </CharString>
          <CharString index="206">
            -19 -6 5 16 hvcurveto
            25 vlineto
            16 6 6 19 vhcurveto
            69 return
          </CharString>
          <CharString index="207">
            hlineto
            24 15 5 10 9 hvcurveto
            return
          </CharString>
          <CharString index="208">
            -93 -42 callgsubr
            return
          </CharString>
          <CharString index="209">
            rmoveto
            220 228 rlineto
            140 vlineto
            -358 -368 rlineto
            82 339 186 callsubr
            54 253 callgsubr
            18 vhcurveto
            68 hlineto
            276 193 rmoveto
            97 -548 -97 272 -96 326 callsubr
            -86 100 callgsubr
            88 137 97 -137 96 vlineto
            endchar
          </CharString>
          <CharString index="210">
            186 callgsubr
            endchar
          </CharString>
          <CharString index="211">
            88 callsubr
            101 callsubr
            return
          </CharString>
          <CharString index="212">
            vlineto
            -87 callsubr
            -5 6 vhcurveto
            return
          </CharString>
          <CharString index="213">
            18 7 7 20 vhcurveto
            return
          </CharString>
          <CharString index="214">
            263 callsubr
            40 48 callsubr
            return
          </CharString>
          <CharString index="215">
            -20 callgsubr
            -196 hlineto
            -81 43 -32 93 vhcurveto
            return
          </CharString>
          <CharString index="216">
            60 vlineto
            499 callgsubr
            return
          </CharString>
          <CharString index="217">
            18 233 callsubr
            return
          </CharString>
          <CharString index="218">
            -62 vlineto
            -22 -7 -6 -22 vhcurveto
            -135 hlineto
            -22 -7 6 22 hvcurveto
            62 -117 return
          </CharString>
          <CharString index="219">
            -60 callgsubr
            endchar
          </CharString>
          <CharString index="220">
            -2 hlineto
            144 callgsubr
            return
          </CharString>
          <CharString index="221">
            hlineto
            -10 155 callgsubr
            return
          </CharString>
          <CharString index="222">
            -99 callsubr
            18 return
          </CharString>
          <CharString index="223">
            105 77 callsubr
            return
          </CharString>
          <CharString index="224">
            304 callgsubr
            -99 252 callgsubr
            228 97 -199 2 callgsubr
            70 vlineto
            21 244 callgsubr
            33 91 callgsubr
            -29 139 39 239 callgsubr
            -63 hlineto
            -18 -8 282 callgsubr
            30 callsubr
            endchar
          </CharString>
          <CharString index="225">
            rmoveto
            -81 39 48 callsubr
            53 hlineto
            -91 -135 rlineto
            142 hlineto
            94 139 rlineto
            104 vlineto
            -23 23 -23 55 -31 44 -52 78 rcurveline
            503 callsubr
            140 -26 rmoveto
            17 -22 24 -36 17 -29 61 -89 rcurveline
            -94 -98 callgsubr
            -196 338 rmoveto
            369 97 -369 hlineto
            endchar
          </CharString>
          <CharString index="226">
            rmoveto
            17 -22 24 -36 17 -29 64 -89 rcurveline
            -97 -98 callgsubr
            return
          </CharString>
          <CharString index="227">
            rmoveto
            -91 143 rlineto
            281 callgsubr
            return
          </CharString>
          <CharString index="228">
            38 callgsubr
            29 -99 callsubr
            return
          </CharString>
          <CharString index="229">
            90 callsubr
            -37 19 callgsubr
            return
          </CharString>
          <CharString index="230">
            -72 callsubr
            -28 hlineto
            -18 return
          </CharString>
          <CharString index="231">
            -186 vlineto
            -81 40 48 callsubr
            return
          </CharString>
          <CharString index="232">
            258 callgsubr
            98 return
          </CharString>
          <CharString index="233">
            84 vlineto
            -307 -107 rmoveto
            107 84 -107 vlineto
            -223 -222 -81 callsubr
            650 301 rmoveto
            -929 -23 callgsubr
            84 return
          </CharString>
          <CharString index="234">
            21 callsubr
            277 hmoveto
            97 -563 272 callsubr
            111 97 -90 -44 callsubr
          </CharString>
          <CharString index="235">
            rmoveto
            -697 -97 492 -63 -214 -212 hlineto
            424 callsubr
            -222 vlineto
            449 callgsubr
            75 -149 vlineto
            -291 -287 rlineto
            150 hlineto
            141 144 rlineto
            -87 45 callgsubr
          </CharString>
          <CharString index="236">
            422 callsubr
            -22 -88 callsubr
            155 198 callgsubr
            return
          </CharString>
          <CharString index="237">
            vlineto
            25 6 7 23 1 vhcurveto
            return
          </CharString>
          <CharString index="238">
            3 410 376 callgsubr
            74 97 -504 -97 290 -63 -102 181 callgsubr
            -47 343 callsubr
            92 vhcurveto
            96 411 callsubr
            -23 -47 callgsubr
            -64 hlineto
            -14 -8 5 18 hvcurveto
            15 -139 -53 vlineto
            -40 16 -17 28 376 callsubr
            -28 -3 -16 -17 -35 vvcurveto
            return
          </CharString>
          <CharString index="239">
            -46 167 506 rmoveto
            18 7 7 19 vhcurveto
            25 44 callsubr
            -59 vlineto
            -46 -9 -26 -33 -42 vhcurveto
            -176 -236 rlineto
            -97 361 105 -187 vlineto
            128 187 rlineto
            38 50 19 39 64 vvcurveto
            81 vlineto
            68 -37 42 -91 vhcurveto
            -108 hlineto
            -91 -35 -42 -68 hvcurveto
            -104 143 vlineto
            endchar
          </CharString>
          <CharString index="240">
            -75 122 15 callgsubr
            259 684 228 callsubr
          </CharString>
          <CharString index="241">
            rmoveto
            -88 callgsubr
            254 77 vlineto
            422 97 rmoveto
            -700 -97 62 -264 187 callsubr
            264 79 -291 vlineto
            -309 -319 63 callsubr
          </CharString>
          <CharString index="242">
            rmoveto
            -69 callgsubr
            86 hlineto
            167 callsubr
            return
          </CharString>
          <CharString index="243">
            rmoveto
            -539 -97 65 -194 hlineto
            -34 16 -16 -69 callsubr
            -122 vlineto
            return
          </CharString>
          <CharString index="244">
            -97 271 -63 435 callsubr
            -104 vlineto
            -81 37 165 callgsubr
            return
          </CharString>
          <CharString index="245">
            vlineto
            123 callsubr
            return
          </CharString>
          <CharString index="246">
            hlineto
            -14 295 callgsubr
            return
          </CharString>
          <CharString index="247">
            209 callsubr
            -8 5 21 hvcurveto
            return
          </CharString>
          <CharString index="248">
            -80 callsubr
            49 hlineto
            return
          </CharString>
          <CharString index="249">
            rmoveto
            -490 -97 286 -315 hlineto
            -21 344 callgsubr
            -33 -97 callsubr
            132 31 callgsubr
            -177 365 callgsubr
            539 64 vlineto
            endchar
          </CharString>
          <CharString index="250">
            225 21 callsubr
            return
          </CharString>
          <CharString index="251">
            501 callsubr
            -31 33 -82 5 414 callsubr
          </CharString>
          <CharString index="252">
            -61 9 callsubr
            return
          </CharString>
          <CharString index="253">
            -78 264 callgsubr
            return
          </CharString>
          <CharString index="254">
            rmoveto
            150 hlineto
            202 206 rlineto
            141 vlineto
            -491 -36 rmoveto
            449 callgsubr
            136 97 -275 -212 vlineto
            424 callsubr
            vlineto
            -62 63 rmoveto
            553 97 -553 hlineto
            endchar
          </CharString>
          <CharString index="255">
            -73 -35 -34 -58 -29 4 -37 6 -43 hvcurveto
            -3 hlineto
            -9 30 -17 30 -20 31 -36 51 rcurveline
            -172 hlineto
            return
          </CharString>
          <CharString index="256">
            hlineto
            102 callgsubr
            return
          </CharString>
          <CharString index="257">
            vvcurveto
            345 callgsubr
          </CharString>
          <CharString index="258">
            -193 -30 callsubr
            -68 vlineto
            -66 414 callgsubr
            78 354 callsubr
            -94 139 478 -139 -74 vlineto
            -20 -7 -5 -19 vhcurveto
            -54 2 callgsubr
            121 -38 callsubr
            endchar
          </CharString>
          <CharString index="259">
            -41 callsubr
            -22 292 callgsubr
            7 5 18 vhcurveto
            return
          </CharString>
          <CharString index="260">
            -338 -17 callsubr
            return
          </CharString>
          <CharString index="261">
            43 callsubr
            -27 2 callgsubr
            return
          </CharString>
          <CharString index="262">
            -99 callgsubr
            14 vhcurveto
            return
          </CharString>
          <CharString index="263">
            140 callsubr
            141 14 360 callgsubr
            -9 -5 -18 vhcurveto
            -21 hlineto
            -19 -8 5 21 hvcurveto
            118 257 callgsubr
            return
          </CharString>
          <CharString index="264">
            165 callgsubr
            135 89 -335 -65 callsubr
          </CharString>
          <CharString index="265">
            37 -52 callgsubr
            return
          </CharString>
          <CharString index="266">
            476 callgsubr
            150 -30 callgsubr
            -174 vlineto
            -81 39 48 callsubr
            73 hlineto
            29 18 7 13 351 callgsubr
            267 callsubr
            188 return
          </CharString>
          <CharString index="267">
            62 callgsubr
            162 125 callgsubr
            return
          </CharString>
          <CharString index="268">
            437 callsubr
            23 30 callgsubr
            -147 -50 callsubr
            return
          </CharString>
          <CharString index="269">
            -97 219 hlineto
            31 288 callsubr
            -82 vlineto
            -21 344 callgsubr
            -56 -97 56 374 callsubr
            -162 -47 callgsubr
            -29 139 callsubr
            105 -139 -119 vlineto
            468 callsubr
            111 283 callgsubr
            return
          </CharString>
          <CharString index="270">
            282 callsubr
            -77 123 callgsubr
            return
          </CharString>
          <CharString index="271">
            -64 vlineto
            -82 -5 -30 -33 -74 484 callgsubr
            return
          </CharString>
          <CharString index="272">
            -5 -14 230 callsubr
            return
          </CharString>
          <CharString index="273">
            -92 -42 callgsubr
            return
          </CharString>
          <CharString index="274">
            204 97 rmoveto
            return
          </CharString>
          <CharString index="275">
            -81 39 48 callsubr
            459 callsubr
            65 vlineto
            endchar
          </CharString>
          <CharString index="276">
            hlineto
            29 208 callsubr
            return
          </CharString>
          <CharString index="277">
            -81 39 48 callsubr
            90 hlineto
            26 16 8 16 8 hvcurveto
            -17 20 28 -7 36 hhcurveto
            22 callsubr
            -92 140 return
          </CharString>
          <CharString index="278">
            443 callgsubr
            70 vlineto
            26 5 5 26 vhcurveto
            50 -101 hlineto
            -76 callsubr
            return
          </CharString>
          <CharString index="279">
            hlineto
            260 callgsubr
            return
          </CharString>
          <CharString index="280">
            -22 -9 -6 196 callsubr
            return
          </CharString>
          <CharString index="281">
            -38 callgsubr
            -67 423 callgsubr
            return
          </CharString>
          <CharString index="282">
            rmoveto
            -697 -97 492 -63 -214 -275 hlineto
            -86 callsubr
            75 -379 45 callgsubr
          </CharString>
          <CharString index="283">
            -104 callsubr
            155 31 callgsubr
            return
          </CharString>
          <CharString index="284">
            -23 -10 -9 -20 vhcurveto
            return
          </CharString>
          <CharString index="285">
            vvcurveto
            310 callgsubr
          </CharString>
          <CharString index="286">
            rmoveto
            508 callsubr
            -133 hlineto
            221 -116 rmoveto
            508 callsubr
            -133 hlineto
            return
          </CharString>
          <CharString index="287">
            vlineto
            232 callsubr
            return
          </CharString>
          <CharString index="288">
            -42 -69 hvcurveto
            -273 vlineto
            return
          </CharString>
          <CharString index="289">
            36 42 69 hvcurveto
            return
          </CharString>
          <CharString index="290">
            -52 -31 -21 -54 hvcurveto
            -19 -4 vlineto
            28 -3 -22 18 -45 hhcurveto
            -323 448 callgsubr
            29 380 callgsubr
            97 -65 return
          </CharString>
          <CharString index="291">
            299 callgsubr
            273 vlineto
            7 183 vlineto
            19 233 callsubr
            -34 vlineto
            -18 -7 -5 -19 302 callsubr
          </CharString>
          <CharString index="292">
            -102 callsubr
            412 257 rmoveto
            return
          </CharString>
          <CharString index="293">
            43 callsubr
            -40 2 callgsubr
            return
          </CharString>
          <CharString index="294">
            hlineto
            -70 callgsubr
            return
          </CharString>
          <CharString index="295">
            rmoveto
            232 callgsubr
            return
          </CharString>
          <CharString index="296">
            -97 65 -194 hlineto
            -34 16 -16 -69 callsubr
            -122 vlineto
            -81 36 -32 100 vhcurveto
            137 106 callgsubr
            122 vlineto
            34 -16 15 -28 4 vhcurveto
            4 vlineto
            28 3 16 16 34 vvcurveto
            return
          </CharString>
          <CharString index="297">
            2 callgsubr
            152 -38 callsubr
            endchar
          </CharString>
          <CharString index="298">
            -101 callgsubr
            57 19 callsubr
            68 97 -68 -97 callsubr
            91 301 callgsubr
            return
          </CharString>
          <CharString index="299">
            -97 73 114 callsubr
            75 hlineto
            return
          </CharString>
          <CharString index="300">
            vlineto
            -67 423 callgsubr
            278 callgsubr
            return
          </CharString>
          <CharString index="301">
            160 65 97 -486 469 callgsubr
            return
          </CharString>
          <CharString index="302">
            -91 hlineto
            -33 callsubr
            return
          </CharString>
          <CharString index="303">
            -19 vhcurveto
            -30 -98 callgsubr
            return
          </CharString>
          <CharString index="304">
            vlineto
            68 -37 30 -78 vhcurveto
            return
          </CharString>
          <CharString index="305">
            -3 vhcurveto
            -4 vlineto
            return
          </CharString>
          <CharString index="306">
            hmoveto
            79 callgsubr
            return
          </CharString>
          <CharString index="307">
            -89 6 -24 0 vhcurveto
            0 -38 52 336 callsubr
            149 hlineto
            15 11 2 4 9 hvcurveto
            -84 140 539 64 vlineto
            endchar
          </CharString>
          <CharString index="308">
            206 callsubr
            -186 vlineto
            -81 36 -32 100 vhcurveto
            return
          </CharString>
          <CharString index="309">
            299 callgsubr
            145 callgsubr
          </CharString>
          <CharString index="310">
            92 199 callgsubr
            return
          </CharString>
          <CharString index="311">
            684 143 callsubr
            -438 7 callsubr
            return
          </CharString>
          <CharString index="312">
            vlineto
            420 callsubr
            17 -15 485 callgsubr
            -50 363 callgsubr
            17 97 return
          </CharString>
          <CharString index="313">
            rmoveto
            194 callsubr
            181 callgsubr
            return
          </CharString>
          <CharString index="314">
            hlineto
            -139 198 rlineto
            -167 hlineto
            61 -81 37 -48 33 -38 37 -31 rlinecurve
            return
          </CharString>
          <CharString index="315">
            6 313 callgsubr
            140 69 vlineto
            74 -43 29 return
          </CharString>
          <CharString index="316">
            17 callgsubr
            -18 return
          </CharString>
          <CharString index="317">
            36 hlineto
            23 15 -2 callgsubr
            return
          </CharString>
          <CharString index="318">
            -18 callgsubr
            235 vlineto
            return
          </CharString>
          <CharString index="319">
            vlineto
            -34 16 -16 -69 callsubr
            -99 252 callgsubr
            228 97 -199 382 callgsubr
            return
          </CharString>
          <CharString index="320">
            297 callgsubr
            90 -94 callsubr
          </CharString>
          <CharString index="321">
            -79 callgsubr
            420 callgsubr
            return
          </CharString>
          <CharString index="322">
            vlineto
            -59 25 -32 53 -7 401 callgsubr
            148 hlineto
            return
          </CharString>
          <CharString index="323">
            -74 46 -30 104 vhcurveto
            return
          </CharString>
          <CharString index="324">
            vlineto
            81 -39 32 -76 vhcurveto
            -62 -44 callsubr
          </CharString>
          <CharString index="325" raw="1">
            f80a1dfb de07680a 0b 
          </CharString>
          <CharString index="326">
            -81 36 -32 100 vhcurveto
            210 callsubr
            -150 139 335 -139 -75 300 callgsubr
            -27 -97 callsubr
            151 -38 callsubr
            endchar
          </CharString>
          <CharString index="327">
            vlineto
            -69 34 -42 83 vhcurveto
            return
          </CharString>
          <CharString index="328">
            vlineto
            68 224 callsubr
            return
          </CharString>
          <CharString index="329">
            -4 -6 -2 -9 -10 vvcurveto
            return
          </CharString>
          <CharString index="330">
            67 -29 39 -92 vhcurveto
            return
          </CharString>
          <CharString index="331">
            -36 42 -91 vhcurveto
            return
          </CharString>
          <CharString index="332">
            vlineto
            -81 39 48 callsubr
            149 hlineto
            15 11 2 4 9 hvcurveto
            -84 -96 callgsubr
          </CharString>
          <CharString index="333">
            343 callgsubr
            -95 vlineto
            -35 99 callgsubr
            -106 vlineto
            -67 33 -32 69 vhcurveto
            33 349 callgsubr
            return
          </CharString>
          <CharString index="334">
            -9 452 225 rmoveto
            -63 125 -135 -125 -117 hlineto
            233 411 rlineto
            -144 hlineto
            -217 -393 rlineto
            -124 245 -119 135 119 63 vlineto
            endchar
          </CharString>
          <CharString index="335">
            rmoveto
            -376 -105 116 -531 143 531 117 hlineto
            endchar
          </CharString>
          <CharString index="336">
            rmoveto
            -13 callgsubr
            return
          </CharString>
          <CharString index="337">
            vhcurveto
            -22 38 callgsubr
            return
          </CharString>
          <CharString index="338">
            87 hlineto
            100 36 -52 callgsubr
            return
          </CharString>
          <CharString index="339">
            -67 29 -32 93 vhcurveto
            return
          </CharString>
          <CharString index="340">
            7 -5 -18 hvcurveto
            return
          </CharString>
          <CharString index="341">
            -97 238 hlineto
            214 callsubr
            227 90 -183 -95 callgsubr
            157 return
          </CharString>
          <CharString index="342">
            vlineto
            -81 40 -32 76 217 callgsubr
          </CharString>
          <CharString index="343">
            hlineto
            361 callsubr
          </CharString>
          <CharString index="344">
            -28 callsubr
            18 vhcurveto
            return
          </CharString>
          <CharString index="345">
            295 callgsubr
            131 return
          </CharString>
          <CharString index="346">
            -158 rlineto
            148 hlineto
            return
          </CharString>
          <CharString index="347">
            584 861 51 callsubr
            28 13 vlineto
            93 26 39 67 hvcurveto
            44 vlineto
            67 -26 39 -93 vhcurveto
            -213 54 406 hlineto
            return
          </CharString>
          <CharString index="348">
            rmoveto
            -18 -8 -7 -19 vhcurveto
            -79 440 474 callsubr
            -636 265 vlineto
            164 callgsubr
          </CharString>
          <CharString index="349">
            -97 callsubr
            66 -34 callsubr
            return
          </CharString>
          <CharString index="350">
            -143 rlineto
            112 return
          </CharString>
          <CharString index="351">
            vlineto
            -69 36 -42 return
          </CharString>
          <CharString index="352">
            rmoveto
            133 hlineto
            53 74 53 -74 rlineto
            132 hlineto
            -118 143 rlineto
            -134 hlineto
            endchar
          </CharString>
          <CharString index="353">
            -91 324 callgsubr
            -16 16 -34 hhcurveto
            -120 hlineto
            -77 454 callgsubr
            -161 vlineto
            -104 callsubr
            return
          </CharString>
          <CharString index="354">
            270 callsubr
            119 197 rlineto
            return
          </CharString>
          <CharString index="355">
            -108 rmoveto
            -18 -9 -9 -19 vhcurveto
            -48 -97 78 hlineto
            91 38 42 71 hvcurveto
            71 -131 vlineto
            return
          </CharString>
          <CharString index="356">
            vlineto
            -35 callgsubr
            return
          </CharString>
          <CharString index="357">
            hlineto
            -74 callsubr
            -36 return
          </CharString>
          <CharString index="358">
            vlineto
            294 callsubr
            return
          </CharString>
          <CharString index="359">
            -76 2 callsubr
            return
          </CharString>
          <CharString index="360">
            321 callsubr
            132 125 callgsubr
            -220 hlineto
            232 callgsubr
            308 vlineto
            return
          </CharString>
          <CharString index="361">
            rmoveto
            -510 315 callgsubr
            142 77 callsubr
            return
          </CharString>
          <CharString index="362">
            hhcurveto
            71 callgsubr
          </CharString>
          <CharString index="363">
            hlineto
            23 15 -2 callgsubr
            -92 139 return
          </CharString>
          <CharString index="364">
            -348 vlineto
            -81 40 48 callsubr
            return
          </CharString>
          <CharString index="365">
            -72 callsubr
            -33 47 callsubr
            -92 -30 -32 -67 hvcurveto
            -168 vlineto
            -71 callgsubr
            return
          </CharString>
          <CharString index="366">
            vlineto
            -81 36 -32 100 320 callsubr
            return
          </CharString>
          <CharString index="367">
            -10 -5 -14 -21 vvcurveto
            return
          </CharString>
          <CharString index="368">
            vlineto
            19 244 callgsubr
            103 hlineto
            93 29 31 67 hvcurveto
            53 vlineto
            67 -29 32 -93 vhcurveto
            -95 -95 callgsubr
            18 426 callsubr
          </CharString>
          <CharString index="369">
            rmoveto
            403 callgsubr
            return
          </CharString>
          <CharString index="370">
            507 callsubr
            hlineto
            -81 return
          </CharString>
          <CharString index="371">
            13 callgsubr
            -177 215 callsubr
            121 197 rlineto
            return
          </CharString>
          <CharString index="372">
            196 634 -196 hlineto
            236 -185 rmoveto
            196 185 -196 hlineto
            return
          </CharString>
          <CharString index="373">
            62 256 callsubr
            return
          </CharString>
          <CharString index="374">
            82 hlineto
            100 36 -52 callgsubr
            return
          </CharString>
          <CharString index="375">
            18 callgsubr
            107 return
          </CharString>
          <CharString index="376">
            32 -10 -27 17 -42 hhcurveto
            -24 hlineto
            -83 -34 -42 -68 hvcurveto
            -274 416 callgsubr
            669 return
          </CharString>
          <CharString index="377">
            207 callgsubr
            -134 vlineto
            -60 27 -32 56 -6 401 callgsubr
            149 hlineto
            return
          </CharString>
          <CharString index="378">
            -335 -96 callgsubr
          </CharString>
          <CharString index="379">
            -97 62 -339 301 callsubr
            return
          </CharString>
          <CharString index="380">
            -92 -29 -32 -67 hvcurveto
            -133 329 callsubr
          </CharString>
          <CharString index="381">
            rmoveto
            374 callgsubr
            481 callgsubr
            return
          </CharString>
          <CharString index="382">
            hlineto
            -72 callsubr
            -39 -98 callgsubr
            return
          </CharString>
          <CharString index="383">
            vlineto
            -81 36 -32 100 vhcurveto
            74 106 callgsubr
            return
          </CharString>
          <CharString index="384">
            -6 callsubr
            -112 return
          </CharString>
          <CharString index="385">
            372 callsubr
            56 -137 return
          </CharString>
          <CharString index="386">
            -99 callsubr
            55 hlineto
            return
          </CharString>
          <CharString index="387">
            444 callsubr
            18 vhcurveto
            return
          </CharString>
          <CharString index="388" raw="1">
            3006f7be 1d0b  
          </CharString>
          <CharString index="389">
            hlineto
            29 6 -6 -29 hvcurveto
            return
          </CharString>
          <CharString index="390">
            81 -36 32 -100 vhcurveto
            return
          </CharString>
          <CharString index="391">
            202 rmoveto
            104 callsubr
            return
          </CharString>
          <CharString index="392">
            -16 callsubr
            209 return
          </CharString>
          <CharString index="393">
            hlineto
            289 callsubr
            return
          </CharString>
          <CharString index="394">
            rmoveto
            105 -65 92 -139 -92 -52 -105 52 -279 441 callgsubr
            78 107 -38 hlineto
            -19 -8 6 18 hvcurveto
            259 vlineto
            endchar
          </CharString>
          <CharString index="395">
            6 4 callsubr
            return
          </CharString>
          <CharString index="396">
            -103 callsubr
            148 return
          </CharString>
          <CharString index="397" raw="1">
            f720f7f4 07f7651d 0b 
          </CharString>
          <CharString index="398">
            rmoveto
            531 -142 -636 325 105 vlineto
            endchar
          </CharString>
          <CharString index="399">
            vhcurveto
            18 90 -34 callgsubr
            return
          </CharString>
          <CharString index="400">
            -42 91 vhcurveto
            119 hlineto
            91 return
          </CharString>
          <CharString index="401">
            -92 362 callsubr
            return
          </CharString>
          <CharString index="402">
            hlineto
            -103 callsubr
            return
          </CharString>
          <CharString index="403">
            201 185 callsubr
            return
          </CharString>
          <CharString index="404">
            0 callgsubr
            -19 hvcurveto
            return
          </CharString>
          <CharString index="405">
            253 callgsubr
            19 vhcurveto
            return
          </CharString>
          <CharString index="406">
            510 callgsubr
            -76 vhcurveto
            return
          </CharString>
          <CharString index="407">
            453 callsubr
            -21 hvcurveto
            return
          </CharString>
          <CharString index="408">
            365 callgsubr
            352 -43 callsubr
            return
          </CharString>
          <CharString index="409">
            vhcurveto
            -111 -122 hlineto
            -81 43 -32 93 vhcurveto
            165 -94 callsubr
          </CharString>
          <CharString index="410">
            -32 rmoveto
            478 callsubr
            307 hlineto
            46 21 24 42 vhcurveto
            49 121 -17 hlineto
            -53 -34 -31 -43 -10 hvcurveto
            endchar
          </CharString>
          <CharString index="411">
            123 143 rlineto
            return
          </CharString>
          <CharString index="412" raw="1">
            520748a8 6b0b  
          </CharString>
          <CharString index="413">
            -133 vlineto
            -81 return
          </CharString>
          <CharString index="414">
            -93 callgsubr
            322 -43 callsubr
            58 -2 hlineto
            return
          </CharString>
          <CharString index="415">
            -89 367 636 rmoveto
            -358 -112 206 hlineto
            -180 -524 rlineto
            147 hlineto
            185 556 rlineto
            endchar
          </CharString>
          <CharString index="416">
            -52 callsubr
            89 271 callsubr
          </CharString>
          <CharString index="417">
            470 callgsubr
            636 vlineto
            return
          </CharString>
          <CharString index="418">
            -43 callgsubr
            -111 return
          </CharString>
          <CharString index="419">
            100 callsubr
            -105 return
          </CharString>
          <CharString index="420">
            418 callsubr
            109 -80 callsubr
            55 hlineto
            return
          </CharString>
          <CharString index="421">
            -97 286 -63 -100 hlineto
            166 callsubr
            304 callgsubr
            return
          </CharString>
          <CharString index="422">
            141 callsubr
            412 257 rmoveto
            -678 -97 474 325 callgsubr
            return
          </CharString>
          <CharString index="423">
            -32 330 callsubr
          </CharString>
          <CharString index="424">
            -338 rmoveto
            -21 -8 -5 -19 352 callgsubr
            return
          </CharString>
          <CharString index="425">
            hlineto
            298 callgsubr
            -5 hlineto
            28 -3 -15 16 -35 hhcurveto
            return
          </CharString>
          <CharString index="426">
            180 callsubr
            61 98 438 callgsubr
            return
          </CharString>
          <CharString index="427">
            vhcurveto
            83 106 callgsubr
            113 -140 -103 vlineto
            -21 return
          </CharString>
          <CharString index="428">
            202 120 callgsubr
            return
          </CharString>
          <CharString index="429">
            158 callsubr
            188 88 97 -321 vlineto
            return
          </CharString>
          <CharString index="430">
            90 callgsubr
            -208 return
          </CharString>
          <CharString index="431">
            421 636 rmoveto
            -441 -97 441 hlineto
            return
          </CharString>
          <CharString index="432">
            -214 396 callsubr
            return
          </CharString>
          <CharString index="433">
            -99 181 callgsubr
            return
          </CharString>
          <CharString index="434">
            vlineto
            357 callsubr
            return
          </CharString>
          <CharString index="435">
            rmoveto
            -686 -97 482 -207 -85 417 callgsubr
            return
          </CharString>
          <CharString index="436">
            vlineto
            143 callgsubr
          </CharString>
          <CharString index="437">
            rmoveto
            -363 -105 180 callgsubr
            endchar
          </CharString>
          <CharString index="438">
            hlineto
            -25 -8 7 26 hvcurveto
            104 73 vlineto
            89 35 30 74 hvcurveto
            175 74 callgsubr
            272 return
          </CharString>
          <CharString index="439">
            148 hlineto
            99 163 rlineto
            -106 417 callsubr
            return
          </CharString>
          <CharString index="440">
            -81 37 -32 100 vhcurveto
            -29 callsubr
            188 return
          </CharString>
          <CharString index="441">
            22 callgsubr
            42 27 17 32 10 hvcurveto
            return
          </CharString>
          <CharString index="442">
            50 -139 -39 vlineto
            -76 callsubr
            -58 -88 callsubr
            70 -38 callsubr
            return
          </CharString>
          <CharString index="443">
            -31 44 vhcurveto
            -52 78 rlineto
            74 90 -136 hlineto
            -92 -30 29 callsubr
            return
          </CharString>
          <CharString index="444">
            183 163 rmoveto
            283 callsubr
            -37 -97 20 300 callsubr
            -279 127 70 return
          </CharString>
          <CharString index="445">
            -103 vlineto
            -21 -9 -5 -18 vhcurveto
            -23 -73 callsubr
            endchar
          </CharString>
          <CharString index="446">
            rmoveto
            281 callgsubr
            112 hlineto
            endchar
          </CharString>
          <CharString index="447">
            421 callsubr
            hlineto
            endchar
          </CharString>
          <CharString index="448">
            hlineto
            401 callsubr
            return
          </CharString>
          <CharString index="449">
            rmoveto
            -11 callgsubr
            return
          </CharString>
          <CharString index="450">
            vlineto
            -67 29 -31 return
          </CharString>
          <CharString index="451">
            rmoveto
            97 -492 -97 177 164 callsubr
            -81 36 -32 100 vhcurveto
            return
          </CharString>
          <CharString index="452">
            vlineto
            361 callsubr
          </CharString>
          <CharString index="453">
            vlineto
            168 callsubr
          </CharString>
          <CharString index="454">
            433 callsubr
            10 -9 -23 hvcurveto
            return
          </CharString>
          <CharString index="455">
            hlineto
            173 callsubr
            return
          </CharString>
          <CharString index="456">
            vlineto
            476 callgsubr
            return
          </CharString>
          <CharString index="457">
            36 -9 -27 20 -45 465 callsubr
            return
          </CharString>
          <CharString index="458">
            111 139 callgsubr
            return
          </CharString>
          <CharString index="459">
            130 90 callsubr
            return
          </CharString>
          <CharString index="460">
            285 299 callgsubr
            return
          </CharString>
          <CharString index="461">
            hlineto
            23 400 callsubr
            return
          </CharString>
          <CharString index="462">
            223 callgsubr
            -59 return
          </CharString>
          <CharString index="463">
            -14 callsubr
            64 return
          </CharString>
          <CharString index="464">
            -18 423 callsubr
            return
          </CharString>
          <CharString index="465">
            450 callsubr
            -170 vlineto
            -81 39 48 callsubr
            return
          </CharString>
          <CharString index="466">
            -42 callgsubr
            -20 -87 105 callsubr
            return
          </CharString>
          <CharString index="467">
            -17 callsubr
            107 408 callgsubr
            return
          </CharString>
          <CharString index="468">
            -94 callgsubr
            539 64 vlineto
            endchar
          </CharString>
          <CharString index="469">
            -29 -31 -67 hvcurveto
            return
          </CharString>
          <CharString index="470">
            475 387 callgsubr
            return
          </CharString>
          <CharString index="471">
            vlineto
            381 callgsubr
            return
          </CharString>
          <CharString index="472">
            -95 callgsubr
            232 19 callsubr
            30 hlineto
            21 4 -8 -18 hvcurveto
            return
          </CharString>
          <CharString index="473">
            rmoveto
            -145 hlineto
            -105 -241 104 -254 rlineto
            146 hlineto
            -109 254 rlineto
            endchar
          </CharString>
          <CharString index="474">
            -32 393 callsubr
            return
          </CharString>
          <CharString index="475">
            -15 callsubr
            32 91 callgsubr
            return
          </CharString>
          <CharString index="476">
            79 hlineto
            19 8 -7 -18 hvcurveto
            -249 return
          </CharString>
          <CharString index="477">
            -8 vhcurveto
            -101 -160 rlineto
            148 hlineto
            return
          </CharString>
          <CharString index="478">
            hlineto
            20 7 -6 -19 hvcurveto
            return
          </CharString>
          <CharString index="479">
            -44 -27 -20 -36 -9 hvcurveto
            return
          </CharString>
          <CharString index="480" raw="1">
            b5d01ff8 33070b  
          </CharString>
          <CharString index="481">
            hlineto
            18 7 -5 -21 hvcurveto
            return
          </CharString>
          <CharString index="482">
            -76 454 callgsubr
            return
          </CharString>
          <CharString index="483">
            -4 vhcurveto
            -4 vlineto
            return
          </CharString>
          <CharString index="484">
            -140 -76 vlineto
            return
          </CharString>
          <CharString index="485" raw="1">
            a80af729 069a968d 8f941f0b 
          </CharString>
          <CharString index="486">
            -41 callsubr
            -28 16 callsubr
            -67 29 -32 93 vhcurveto
            return
          </CharString>
          <CharString index="487">
            122 callgsubr
            22 -188 40 callgsubr
            return
          </CharString>
          <CharString index="488">
            -76 callsubr
            -22 2 callgsubr
            125 -99 callsubr
            return
          </CharString>
          <CharString index="489">
            -8 callgsubr
            -5 6 vhcurveto
            80 hlineto
            return
          </CharString>
          <CharString index="490">
            rmoveto
            61 -81 39 -51 35 -40 40 -32 rlinecurve
            135 hlineto
            -143 204 rlineto
            endchar
          </CharString>
          <CharString index="491">
            hlineto
            20 377 callgsubr
            endchar
          </CharString>
          <CharString index="492">
            90 -62 hlineto
            -92 return
          </CharString>
          <CharString index="493">
            hlineto
            -34 62 rlineto
            55 -29 -19 18 -77 hhcurveto
            -76 55 hlineto
            11 -2 8 -4 6 vhcurveto
            return
          </CharString>
          <CharString index="494">
            14 callsubr
            188 hlineto
            return
          </CharString>
          <CharString index="495">
            237 callsubr
            21 hlineto
            18 return
          </CharString>
          <CharString index="496">
            432 callsubr
            65 -89 rcurveline
            -98 -97 callsubr
            return
          </CharString>
          <CharString index="497">
            -214 -275 hlineto
            -88 callgsubr
            275 return
          </CharString>
          <CharString index="498">
            -2 vlineto
            -52 callsubr
            return
          </CharString>
          <CharString index="499">
            424 636 rmoveto
            -444 -97 444 hlineto
            return
          </CharString>
          <CharString index="500">
            93 vhcurveto
            165 hlineto
            21 14 -2 callgsubr
            return
          </CharString>
          <CharString index="501">
            466 callgsubr
            470 hlineto
            return
          </CharString>
          <CharString index="502">
            hvcurveto
            -17 422 callgsubr
            return
          </CharString>
          <CharString index="503">
            hlineto
            -89 6 -24 0 vhcurveto
            0 return
          </CharString>
          <CharString index="504">
            145 148 -145 hlineto
            return
          </CharString>
          <CharString index="505">
            -50 callsubr
            -36 return
          </CharString>
          <CharString index="506">
            -81 36 -31 100 vhcurveto
            return
          </CharString>
          <CharString index="507">
            14 4 9 9 hvcurveto
            return
          </CharString>
          <CharString index="508">
            91 483 callsubr
            return
          </CharString>
          <CharString index="509">
            74 90 -136 hlineto
            return
          </CharString>
          <CharString index="510">
            -70 -93 callgsubr
            return
          </CharString>
          <CharString index="511">
            rmoveto
            160 65 97 -735 -97 531 -63 -96 181 callgsubr
            return
          </CharString>
          <CharString index="512">
            -97 735 -337 hlineto
            -104 callsubr
            return
          </CharString>
          <CharString index="513">
            73 callgsubr
            hlineto
            endchar
          </CharString>
          <CharString index="514">
            24 callgsubr
            41 hlineto
            return
          </CharString>
          <CharString index="515">
            rmoveto
            -141 -117 141 hlineto
            return
          </CharString>
          <CharString index="516">
            -62 -33 -14 -30 -15 hvcurveto
            -95 107 return
          </CharString>
          <CharString index="517">
            hlineto
            445 callsubr
            return
          </CharString>
          <CharString index="518">
            hlineto
            18 7 -5 -19 hvcurveto
            return
          </CharString>
          <CharString index="519">
            -265 140 539 return
          </CharString>
          <CharString index="520">
            vlineto
            -19 -7 -5 return
          </CharString>
          <CharString index="521">
            vhcurveto
            -7 callgsubr
          </CharString>
          <CharString index="522">
            472 callsubr
            -3 -16 16 -34 hhcurveto
            return
          </CharString>
          <CharString index="523">
            262 callgsubr
            -52 78 rlineto
            return
          </CharString>
          <CharString index="524">
            139 -5 callsubr
            19 vhcurveto
            32 374 callsubr
            return
          </CharString>
          <CharString index="525">
            262 319 callgsubr
            return
          </CharString>
          <CharString index="526">
            211 callgsubr
            98 161 rlineto
            -104 140 539 return
          </CharString>
          <CharString index="527">
            222 callsubr
            -145 vlineto
            -35 return
          </CharString>
          <CharString index="528">
            140 539 62 return
          </CharString>
          <CharString index="529">
            -21 501 callgsubr
            return
          </CharString>
          <CharString index="530">
            -7 -6 -20 vhcurveto
            return
          </CharString>
          <CharString index="531">
            -88 callgsubr
            212 -139 return
          </CharString>
          <CharString index="532">
            rmoveto
            -56 vlineto
            350 callsubr
            return
          </CharString>
          <CharString index="533">
            -80 callsubr
            endchar
          </CharString>
          <CharString index="534">
            hlineto
            1 -97 rlineto
            return
          </CharString>
          <CharString index="535">
            vlineto
            -13 -5 -4 -14 vhcurveto
            -21 -71 77 hlineto
            67 22 24 49 hvcurveto
            return
          </CharString>
          <CharString index="536">
            223 callsubr
            -141 -97 97 hlineto
            19 233 callsubr
            return
          </CharString>
          <CharString index="537">
            hlineto
            26 8 4 callsubr
            -141 vlineto
            -26 -8 -7 -26 vhcurveto
            -23 return
          </CharString>
          <CharString index="538">
            199 callgsubr
            105 vlineto
            67 -29 31 return
          </CharString>
          <CharString index="539">
            351 116 callgsubr
            return
          </CharString>
          <CharString index="540">
            24 callgsubr
            23 hlineto
            20 return
          </CharString>
          <CharString index="541">
            13 vlineto
            93 26 38 67 hvcurveto
            return
          </CharString>
          <CharString index="542">
            -71 hlineto
            -104 -46 -30 -74 hvcurveto
            return
          </CharString>
          <CharString index="543">
            394 376 callgsubr
            return
          </CharString>
          <CharString index="544">
            60 155 callsubr
            return
          </CharString>
          <CharString index="545">
            105 139 callgsubr
            return
          </CharString>
          <CharString index="546">
            305 callgsubr
            73 hlineto
            return
          </CharString>
          <CharString index="547">
            vlineto
            16 7 6 19 vhcurveto
            return
          </CharString>
          <CharString index="548">
            vlineto
            33 callsubr
            return
          </CharString>
          <CharString index="549">
            rmoveto
            -101 callgsubr
            return
          </CharString>
          <CharString index="550">
            vlineto
            19 7 6 20 vhcurveto
            return
          </CharString>
          <CharString index="551">
            356 413 callgsubr
            return
          </CharString>
          <CharString index="552">
            31 -8 callsubr
            return
          </CharString>
          <CharString index="553">
            342 callgsubr
            -147 -98 callgsubr
            return
          </CharString>
          <CharString index="554">
            251 callsubr
            -139 vlineto
            -81 36 -32 100 vhcurveto
            return
          </CharString>
          <CharString index="555">
            hlineto
            -101 -35 -33 -79 hvcurveto
            -53 vlineto
            -15 4 -11 7 -9 vhcurveto
            return
          </CharString>
          <CharString index="556">
            -18 callsubr
            -89 147 rlineto
            return
          </CharString>
          <CharString index="557">
            18 7 5 18 vhcurveto
            20 90 -62 9 callsubr
            return
          </CharString>
          <CharString index="558">
            -97 279 -63 -93 hlineto
            166 callsubr
            -264 vlineto
            return
          </CharString>
          <CharString index="559">
            -129 31 250 rmoveto
            270 98 -270 hlineto
            endchar
          </CharString>
          <CharString index="560">
            hlineto
            18 8 -5 return
          </CharString>
          <CharString index="561">
            -18 hvcurveto
            -245 return
          </CharString>
          <CharString index="562">
            vlineto
            422 callsubr
            -62 -88 callsubr
            return
          </CharString>
          <CharString index="563">
            -130 156 -143 -156 -129 -98 129 return
          </CharString>
          <CharString index="564">
            -95 callgsubr
            99 19 callsubr
            return
          </CharString>
          <CharString index="565">
            vlineto
            -81 37 -32 99 vhcurveto
            83 106 callgsubr
            return
          </CharString>
          <CharString index="566">
            266 callsubr
            539 return
          </CharString>
          <CharString index="567">
            rmoveto
            -41 -27 -17 -32 -10 hvcurveto
            223 -139 -669 return
          </CharString>
          <CharString index="568">
            4 9 9 hvcurveto
            -91 45 callgsubr
          </CharString>
          <CharString index="569">
            106 callgsubr
            135 return
          </CharString>
          <CharString index="570" raw="1">
            fb22073a af6bef1e 0b 
          </CharString>
          <CharString index="571">
            -90 61 77 callsubr
            return
          </CharString>
          <CharString index="572">
            hhcurveto
            -24 hlineto
            -83 -34 -42 -69 hvcurveto
            return
          </CharString>
          <CharString index="573">
            vlineto
            68 -36 30 -78 vhcurveto
            -47 hlineto
            return
          </CharString>
          <CharString index="574" raw="1">
            b8281d0b   
          </CharString>
          <CharString index="575">
            -67 414 callgsubr
            return
          </CharString>
          <CharString index="576">
            106 hlineto
            67 -29 39 return
          </CharString>
          <CharString index="577">
            32 288 callsubr
            return
          </CharString>
          <CharString index="578">
            539 rmoveto
            97 return
          </CharString>
          <CharString index="579">
            rmoveto
            195 callsubr
            return
          </CharString>
          <CharString index="580">
            -104 callgsubr
            152 vlineto
            20 7 6 19 vhcurveto
            return
          </CharString>
          <CharString index="581">
            369 callsubr
            123 rmoveto
            return
          </CharString>
          <CharString index="582">
            vlineto
            -81 40 48 callsubr
            61 hlineto
            26 15 5 12 return
          </CharString>
          <CharString index="583">
            -15 callsubr
            25 91 callgsubr
            return
          </CharString>
          <CharString index="584">
            167 callgsubr
            17 hvcurveto
            return
          </CharString>
          <CharString index="585">
            -137 -495 139 return
          </CharString>
          <CharString index="586">
            27 -3 428 callgsubr
            return
          </CharString>
          <CharString index="587">
            hlineto
            21 5 -8 -18 hvcurveto
            return
          </CharString>
          <CharString index="588">
            96 34 32 61 hvcurveto
            79 return
          </CharString>
          <CharString index="589">
            vlineto
            223 callsubr
            return
          </CharString>
          <CharString index="590">
            35 42 69 hvcurveto
            return
          </CharString>
          <CharString index="591">
            495 vlineto
            endchar
          </CharString>
          <CharString index="592">
            hlineto
            101 -178 rmoveto
            71 27 25 48 hvcurveto
            56 return
          </CharString>
          <CharString index="593">
            -32 50 370 callsubr
            return
          </CharString>
          <CharString index="594">
            -364 442 callsubr
            338 84 return
          </CharString>
          <CharString index="595">
            -63 -93 181 callgsubr
            -264 vlineto
            return
          </CharString>
          <CharString index="596">
            295 636 rmoveto
            -315 -97 315 hlineto
            return
          </CharString>
          <CharString index="597">
            497 callgsubr
            507 callgsubr
            return
          </CharString>
          <CharString index="598">
            hlineto
            28 16 9 16 7 hvcurveto
            -17 22 34 -8 return
          </CharString>
          <CharString index="599">
            rmoveto
            94 hlineto
            304 callsubr
            -125 hlineto
            return
          </CharString>
          <CharString index="600">
            rmoveto
            437 106 -437 hlineto
            return
          </CharString>
          <CharString index="601">
            148 147 -148 hlineto
            return
          </CharString>
          <CharString index="602">
            hlineto
            7 9 4 11 15 vvcurveto
            return
          </CharString>
          <CharString index="603">
            -52 callgsubr
            501 callsubr
            return
          </CharString>
          <CharString index="604">
            327 callgsubr
            32 return
          </CharString>
          <CharString index="605">
            -107 -72 callgsubr
            return
          </CharString>
          <CharString index="606">
            vhcurveto
            -89 -146 rlineto
            return
          </CharString>
          <CharString index="607">
            rmoveto
            -73 66 73 vlineto
            return
          </CharString>
          <CharString index="608">
            250 vlineto
            74 return
          </CharString>
          <CharString index="609">
            42 -91 vhcurveto
            endchar
          </CharString>
          <CharString index="610">
            74 90 -136 9 callsubr
            return
          </CharString>
          <CharString index="611">
            -41 callsubr
            -27 -88 callsubr
            return
          </CharString>
          <CharString index="612">
            rmoveto
            145 108 -145 hlineto
            endchar
          </CharString>
          <CharString index="613">
            32 61 hvcurveto
            79 vlineto
            endchar
          </CharString>
          <CharString index="614">
            -97 62 -348 return
          </CharString>
          <CharString index="615">
            133 116 return
          </CharString>
          <CharString index="616" raw="1">
            f71a06e6 0b  
          </CharString>
        <CharString name=".notdef">
          49 0 vmoveto
          502 701 -502 hlineto
          51 -49 rmoveto
          400 -603 -400 hlineto
          200 253 rmoveto
          105 -209 rlineto
          60 hlineto
          -135 254 135 261 rlineto
          -60 hlineto
          -100 -206 rlineto
          -4 hlineto
          -105 206 rlineto
          -60 hlineto
          134 -255 -134 -260 rlineto
          60 hlineto
          100 209 rlineto
          endchar
        </CharString>
        <CharString name="A">
          22 188 219 -51 callgsubr
        </CharString>
        <CharString name="AE">
          236 229 230 rmoveto
          109 297 rlineto
          -297 vlineto
          136 -125 rmoveto
          166 167 105 -167 155 196 105 -419 vlineto
          -247 -636 rlineto
          141 hlineto
          47 128 rlineto
          146 -128 340 105 hlineto
          endchar
        </CharString>
        <CharString name="Aacute">
          22 421 811 29 callgsubr
          -110 -449 -51 callgsubr
        </CharString>
        <CharString name="Abreve">
          22 290 668 rmoveto
          47 callgsubr
          32 -125 88 callgsubr
          -2 -449 -51 callgsubr
        </CharString>
        <CharString name="Acircumflex">
          22 240 742 25 callgsubr
          1 -449 -51 callgsubr
        </CharString>
        <CharString name="Adieresis">
          22 417 785 51 callgsubr
          -8 -450 -51 callgsubr
        </CharString>
        <CharString name="Agrave">
          22 289 668 120 callsubr
          11 -449 -51 callgsubr
        </CharString>
        <CharString name="Amacron">
          22 411 760 294 callgsubr
          -223 -450 -51 callgsubr
        </CharString>
        <CharString name="Aogonek">
          22 188 219 rmoveto
          52 269 52 -269 rlineto
          119 -390 rmoveto
          99 callsubr
          117 -4 hlineto
          -145 622 rlineto
          -182 hlineto
          -144 -636 rlineto
          141 hlineto
          22 115 rlineto
          145 hlineto
          22 -115 rlineto
          61 -19 -6 hlineto
          406 callsubr
        </CharString>
        <CharString name="Aring">
          22 200 763 6 callsubr
          -13 -449 -51 callgsubr
        </CharString>
        <CharString name="Atilde">
          22 170 694 rmoveto
          220 callgsubr
          -7 callsubr
          vlineto
          18 -450 -51 callgsubr
        </CharString>
        <CharString name="B">
          15 45 636 rmoveto
          -636 264 vlineto
          47 callgsubr
          124 vlineto
          44 -10 29 -35 13 vhcurveto
          35 15 10 33 45 vvcurveto
          112 221 callsubr
          -14 -513 90 callsubr
          -82 173 82 hlineto
          20 377 callgsubr
          147 vmoveto
          33 callsubr
          -82 169 82 44 callsubr
          endchar
        </CharString>
        <CharString name="C">
          -11 421 413 -19 callgsubr
        </CharString>
        <CharString name="CR">
          -461 endchar
        </CharString>
        <CharString name="Cacute">
          -11 407 811 29 callgsubr
          137 -255 -19 callgsubr
        </CharString>
        <CharString name="Ccaron">
          -11 296 668 -29 callgsubr
          259 -255 -19 callgsubr
        </CharString>
        <CharString name="Ccedilla">
          -11 164 248 callsubr
          257 461 -19 callgsubr
        </CharString>
        <CharString name="D">
          24 301 123 241 callsubr
        </CharString>
        <CharString name="Dcaron">
          24 305 668 -29 callgsubr
          130 -545 241 callsubr
        </CharString>
        <CharString name="Dcroat">
          29 301 130 rmoveto
          -18 -8 -7 -19 vhcurveto
          -79 168 62 98 -62 160 369 callsubr
          130 rmoveto
          -265 -54 -98 54 -273 265 vlineto
          164 callgsubr
        </CharString>
        <CharString name="E">
          -52 188 105 rmoveto
          166 70 callsubr
          vlineto
          endchar
        </CharString>
        <CharString name="Eacute">
          -52 392 811 29 callgsubr
          -81 -397 rmoveto
          70 callsubr
          -204 hlineto
          endchar
        </CharString>
        <CharString name="Ecaron">
          -52 285 668 -29 callgsubr
          37 -397 rmoveto
          70 callsubr
          -204 hlineto
          endchar
        </CharString>
        <CharString name="Ecircumflex">
          -52 217 742 25 callgsubr
          24 -397 rmoveto
          70 callsubr
          -204 hlineto
          endchar
        </CharString>
        <CharString name="Edieresis">
          -16 391 785 51 callgsubr
          18 -564 rmoveto
          166 70 callsubr
          vlineto
          endchar
        </CharString>
        <CharString name="Edotaccent">
          -52 292 785 408 callsubr
          -104 -563 rmoveto
          166 70 callsubr
          vlineto
          endchar
        </CharString>
        <CharString name="Egrave">
          -52 272 668 120 callsubr
          28 -563 rmoveto
          166 70 callsubr
          vlineto
          endchar
        </CharString>
        <CharString name="Emacron">
          -52 384 765 294 callgsubr
          -196 -569 rmoveto
          166 70 callsubr
          vlineto
          endchar
        </CharString>
        <CharString name="Eogonek">
          -52 324 -171 rmoveto
          99 callsubr
          117 -1 91 -204 166 167 105 -167 155 196 105 -339 -636 264 -19 -6 hlineto
          406 callsubr
        </CharString>
        <CharString name="Eth">
          22 301 123 rmoveto
          -18 -8 -7 -19 vhcurveto
          -79 175 62 98 -62 167 474 callsubr
          -265 -54 -98 54 -273 265 vlineto
          164 callgsubr
        </CharString>
        <CharString name="Euro">
          11 442 413 rmoveto
          113 vlineto
          68 -36 42 -90 vhcurveto
          -128 hlineto
          243 callgsubr
          -103 -43 -85 43 -40 -43 -84 43 -104 vlineto
          -68 36 -42 91 vhcurveto
          128 hlineto
          90 36 42 68 hvcurveto
          110 -143 -97 vlineto
          -19 423 callsubr
          -41 hlineto
          -20 -7 6 19 hvcurveto
          91 70 84 -70 40 70 85 -70 90 407 callsubr
          20 7 -7 -18 hvcurveto
          -100 vlineto
          endchar
        </CharString>
        <CharString name="F">
          -62 387 531 rmoveto
          105 -342 -636 143 257 167 99 -167 175 vlineto
          endchar
        </CharString>
        <CharString name="G">
          -5 421 430 36 callgsubr
        </CharString>
        <CharString name="Gbreve">
          -5 280 668 rmoveto
          47 callgsubr
          32 -125 88 callgsubr
          241 -238 36 callgsubr
        </CharString>
        <CharString name="H">
          39 314 636 rmoveto
          -269 -128 269 -141 -636 141 262 128 -262 141 636 vlineto
          endchar
        </CharString>
        <CharString name="I">
          187 callgsubr
          endchar
        </CharString>
        <CharString name="Iacute">
          187 callgsubr
          -129 32 149 callgsubr
          endchar
        </CharString>
        <CharString name="Icircumflex">
          187 callgsubr
          -257 32 245 callsubr
        </CharString>
        <CharString name="Idieresis">
          -223 -58 669 179 callsubr
          -115 -149 310 callsubr
          endchar
        </CharString>
        <CharString name="Idotaccent">
          187 callgsubr
          -141 37 506 callgsubr
        </CharString>
        <CharString name="Igrave">
          187 callgsubr
          -107 175 339 callsubr
        </CharString>
        <CharString name="Imacron">
          187 callgsubr
          -242 38 453 callgsubr
        </CharString>
        <CharString name="Iogonek">
          -223 122 -171 rmoveto
          99 callsubr
          117 -1 622 -142 -636 59 -19 -6 hlineto
          406 callsubr
        </CharString>
        <CharString name="J">
          -51 12 238 rmoveto
          -127 221 callgsubr
          105 341 callsubr
          525 -143 -506 441 callsubr
          -17 19 callgsubr
          108 vlineto
          endchar
        </CharString>
        <CharString name="K">
          14 45 hmoveto
          142 636 -142 hlineto
          422 hmoveto
          361 callgsubr
        </CharString>
        <CharString name="L">
          -90 187 105 291 callsubr
        </CharString>
        <CharString name="Lacute">
          -90 298 811 29 callgsubr
          12 -563 291 callsubr
        </CharString>
        <CharString name="Lcaron">
          -90 182 670 -29 callgsubr
          139 -565 291 callsubr
        </CharString>
        <CharString name="Lslash">
          -74 194 105 rmoveto
          206 vlineto
          107 51 rlineto
          98 vlineto
          -107 -51 rlineto
          227 -142 -295 vlineto
          -85 -40 rlineto
          -98 vlineto
          85 40 rlineto
          -243 325 105 vlineto
          endchar
        </CharString>
        <CharString name="M">
          151 359 138 rmoveto
          82 289 rlineto
          -427 126 636 -156 vlineto
          -105 -360 -105 360 rlineto
          -156 -636 126 426 hlineto
          82 -288 rlineto
          endchar
        </CharString>
        <CharString name="N">
          25 311 636 103 callsubr
        </CharString>
        <CharString name="NULL">
          -461 endchar
        </CharString>
        <CharString name="Nacute">
          25 180 668 149 callgsubr
          40 -175 103 callsubr
        </CharString>
        <CharString name="Ncaron">
          25 176 668 179 callgsubr
          254 -175 103 callsubr
        </CharString>
        <CharString name="Ntilde">
          25 311 636 186 callgsubr
          -128 33 rmoveto
          -7 callsubr
          25 vlineto
          220 callgsubr
          endchar
        </CharString>
        <CharString name="O">
          8 285 130 -82 callgsubr
        </CharString>
        <CharString name="OE">
          212 305 123 90 callsubr
          -48 hlineto
          -19 -8 7 18 hvcurveto
          390 vlineto
          18 8 7 19 vhcurveto
          48 44 callsubr
          132 -415 rmoveto
          176 167 99 -167 165 196 98 -301 -20 vlineto
          13 -16 -22 7 -29 hhcurveto
          -78 hlineto
          -91 -35 -42 -68 hvcurveto
          -415 221 callgsubr
          78 hlineto
          29 22 7 12 16 hvcurveto
          -19 310 98 vlineto
          endchar
        </CharString>
        <CharString name="Oacute">
          8 414 811 29 callgsubr
          -6 -538 -82 callgsubr
        </CharString>
        <CharString name="Ocircumflex">
          8 233 742 25 callgsubr
          105 -538 -82 callgsubr
        </CharString>
        <CharString name="Odieresis">
          -3 412 785 51 callgsubr
          94 -539 -82 callgsubr
        </CharString>
        <CharString name="Ograve">
          8 285 668 120 callsubr
          112 -538 -82 callgsubr
        </CharString>
        <CharString name="Ohungarumlaut">
          -3 364 668 127 callgsubr
          84 -538 -82 callgsubr
        </CharString>
        <CharString name="Omacron">
          8 406 760 294 callgsubr
          -121 -539 -82 callgsubr
        </CharString>
        <CharString name="Oslash">
          11 294 122 90 callsubr
          -62 19 callgsubr
          7 vlineto
          116 234 rlineto
          -116 151 rmoveto
          106 callsubr
          62 44 callsubr
          -17 vlineto
          -116 -234 rlineto
          261 393 rmoveto
          -66 hlineto
          -13 -27 rlineto
          5 -16 -19 2 -22 hhcurveto
          -134 hlineto
          243 callgsubr
          -415 vlineto
          -31 7 -26 17 -18 vhcurveto
          -28 -56 rlineto
          66 hlineto
          13 26 rlineto
          -4 15 17 -2 20 hhcurveto
          231 callgsubr
          415 vlineto
          29 -6 23 -14 19 vhcurveto
          endchar
        </CharString>
        <CharString name="Otilde">
          8 171 694 rmoveto
          220 callgsubr
          -7 callsubr
          vlineto
          114 -539 -82 callgsubr
        </CharString>
        <CharString name="P">
          -5 290 352 rmoveto
          335 callgsubr
          -77 204 439 callgsubr
          -245 130 470 callgsubr
          222 120 vlineto
          401 callsubr
          193 478 callgsubr
          endchar
        </CharString>
        <CharString name="Q">
          8 184 506 rmoveto
          106 callsubr
          48 222 callgsubr
          -376 vlineto
          335 callgsubr
          -48 19 callgsubr
          284 -207 rmoveto
          -83 95 rlineto
          30 19 13 32 42 vvcurveto
          415 478 callgsubr
          -134 hlineto
          243 callgsubr
          -415 244 callsubr
          91 vhcurveto
          75 hlineto
          66 -77 rlineto
          endchar
        </CharString>
        <CharString name="R">
          8 187 531 62 callsubr
        </CharString>
        <CharString name="Racute">
          8 403 811 29 callgsubr
          -93 -137 62 callsubr
        </CharString>
        <CharString name="Rcaron">
          8 299 668 -29 callgsubr
          22 -137 62 callsubr
        </CharString>
        <CharString name="S">
          -19 266 130 -67 callgsubr
        </CharString>
        <CharString name="Sacute">
          -19 174 668 149 callgsubr
          1 -681 -67 callgsubr
        </CharString>
        <CharString name="Scaron">
          -19 154 668 179 callgsubr
          231 -681 -67 callgsubr
        </CharString>
        <CharString name="T">
          -75 381 636 228 callsubr
        </CharString>
        <CharString name="Tcaron">
          -75 258 668 -29 callgsubr
          257 -32 228 callsubr
        </CharString>
        <CharString name="Thorn">
          16 287 244 rmoveto
          357 callsubr
          -69 196 69 44 callsubr
          -96 126 rmoveto
          119 -143 -636 143 118 112 vlineto
          47 callgsubr
          178 385 callgsubr
        </CharString>
        <CharString name="U">
          14 288 636 rmoveto
          -506 vlineto
          -31 callgsubr
          vlineto
          endchar
        </CharString>
        <CharString name="Uacute">
          14 411 811 29 callgsubr
          -32 vmoveto
          -506 vlineto
          -31 callgsubr
          vlineto
          endchar
        </CharString>
        <CharString name="Ucircumflex">
          14 237 742 25 callgsubr
          104 -32 rmoveto
          -506 vlineto
          -31 callgsubr
          vlineto
          endchar
        </CharString>
        <CharString name="Udieresis">
          14 414 785 51 callgsubr
          95 -33 rmoveto
          -506 vlineto
          -31 callgsubr
          vlineto
          endchar
        </CharString>
        <CharString name="Ugrave">
          14 292 668 120 callsubr
          108 -32 rmoveto
          -506 vlineto
          -31 callgsubr
          vlineto
          endchar
        </CharString>
        <CharString name="Uhungarumlaut">
          -2 358 668 127 callgsubr
          93 -538 rmoveto
          -31 callgsubr
          -143 vlineto
          endchar
        </CharString>
        <CharString name="Umacron">
          14 409 760 294 callgsubr
          -121 -33 rmoveto
          -506 vlineto
          -31 callgsubr
          vlineto
          endchar
        </CharString>
        <CharString name="Uogonek">
          14 288 636 rmoveto
          -506 441 callsubr
          -48 hlineto
          -19 -7 7 18 hvcurveto
          506 -143 -525 221 callgsubr
          35 -19 -6 hlineto
          73 callgsubr
          -87 hlineto
          99 callsubr
          103 15 13 callsubr
          525 vlineto
          endchar
        </CharString>
        <CharString name="Uring">
          14 197 763 6 callsubr
          90 -32 rmoveto
          -506 vlineto
          -31 callgsubr
          vlineto
          endchar
        </CharString>
        <CharString name="V">
          8 314 636 rmoveto
          -80 -472 -79 472 rlineto
          -149 hlineto
          141 -636 rlineto
          175 hlineto
          140 636 rlineto
          endchar
        </CharString>
        <CharString name="W">
          289 598 636 rmoveto
          -67 -475 -84 475 rlineto
          -145 hlineto
          -84 -475 -60 475 rlineto
          -148 hlineto
          123 -636 rlineto
          171 hlineto
          71 416 71 -416 rlineto
          171 hlineto
          123 636 rlineto
          endchar
        </CharString>
        <CharString name="X">
          4 309 324 rmoveto
          135 312 rlineto
          -154 hlineto
          -61 -187 -61 187 rlineto
          -161 hlineto
          142 -312 -147 -324 rlineto
          152 hlineto
          75 202 74 -202 rlineto
          160 hlineto
          endchar
        </CharString>
        <CharString name="Y">
          -2 458 636 308 callgsubr
        </CharString>
        <CharString name="Yacute">
          -2 405 811 29 callgsubr
          176 -32 308 callgsubr
        </CharString>
        <CharString name="Ydieresis">
          -15 401 797 51 callgsubr
          278 -45 308 callgsubr
        </CharString>
        <CharString name="Z">
          -54 391 636 330 callsubr
        </CharString>
        <CharString name="Zacute">
          -54 385 811 29 callgsubr
          129 316 callsubr
        </CharString>
        <CharString name="Zcaron">
          -54 283 668 -29 callgsubr
          -121 -137 rmoveto
          180 callgsubr
          105 -363 vlineto
          endchar
        </CharString>
        <CharString name="Zdotaccent">
          -54 285 785 408 callsubr
          106 316 callsubr
        </CharString>
        <CharString name="a">
          -27 200 105 -54 callsubr
          -49 139 484 callsubr
        </CharString>
        <CharString name="aacute">
          -27 400 670 29 callgsubr
          -77 -422 -21 callsubr
          endchar
        </CharString>
        <CharString name="abreve">
          -27 200 105 -21 callsubr
          28 175 rmoveto
          88 callgsubr
          100 13 callsubr
          32 vlineto
          endchar
        </CharString>
        <CharString name="acircumflex">
          -27 219 601 25 callgsubr
          34 -422 -21 callsubr
          endchar
        </CharString>
        <CharString name="acute">
          9 117 527 149 callgsubr
          endchar
        </CharString>
        <CharString name="adieresis">
          -27 179 658 rmoveto
          -133 -116 133 hlineto
          21 -437 -21 callsubr
          12 163 rmoveto
          -116 508 callsubr
          vlineto
          endchar
        </CharString>
        <CharString name="ae">
          207 205 105 rmoveto
          -18 callgsubr
          42 vlineto
          80 33 rlineto
          -70 vlineto
          -21 -1 -9 -9 -20 hhcurveto
          233 288 rmoveto
          19 8 -6 -19 hvcurveto
          -75 -94 75 443 callsubr
          199 -187 rmoveto
          16 4 162 vlineto
          69 224 callsubr
          -68 hlineto
          390 callgsubr
          -74 140 55 433 callsubr
          9 -9 -21 1 hvcurveto
          -64 vlineto
          -220 -90 rlineto
          -95 218 callgsubr
          vlineto
          endchar
        </CharString>
        <CharString name="agrave">
          -27 300 527 120 callsubr
          12 -422 -54 callsubr
          -49 139 484 callsubr
        </CharString>
        <CharString name="amacron">
          -27 387 645 294 callgsubr
          -187 -449 -54 callsubr
          -49 139 484 callsubr
        </CharString>
        <CharString name="ampersand">
          102 196 98 rmoveto
          -18 callgsubr
          55 vlineto
          25 8 10 17 10 vhcurveto
          20 12 125 -137 rlineto
          -135 417 rmoveto
          19 7 6 19 vhcurveto
          32 371 callsubr
          -69 vlineto
          -32 -18 -12 -37 -23 vhcurveto
          -21 23 -9 14 24 vvcurveto
          402 -476 rmoveto
          -82 92 rlineto
          7 16 4 18 21 vvcurveto
          132 -113 -73 vlineto
          -110 123 19 12 rlineto
          61 38 33 29 76 vvcurveto
          78 vlineto
          68 -34 42 -91 vhcurveto
          -109 hlineto
          243 callgsubr
          -79 vlineto
          -44 26 -33 46 -51 vhcurveto
          -22 -13 rlineto
          -60 -36 -21 -24 -60 vvcurveto
          -75 244 callsubr
          91 vhcurveto
          243 hlineto
          9 8 0 1 8 hvcurveto
          34 -37 rlineto
          endchar
        </CharString>
        <CharString name="aogonek">
          -27 200 105 -46 callgsubr
          101 -276 rmoveto
          99 callsubr
          117 -1 481 -137 -56 hlineto
          61 callgsubr
          56 367 callgsubr
        </CharString>
        <CharString name="approxequal">
          75 347 350 rmoveto
          55 hlineto
          73 28 31 62 hvcurveto
          64 -128 -32 430 callgsubr
          -30 -63 hvcurveto
          -63 128 31 vlineto
          23 5 10 23 vhcurveto
          55 24 -65 79 hhcurveto
          -188 vmoveto
          55 hlineto
          73 28 31 62 hvcurveto
          63 -128 -31 430 callgsubr
          -31 -62 hvcurveto
          -64 128 32 vlineto
          22 5 11 23 vhcurveto
          55 24 -65 79 hhcurveto
          endchar
        </CharString>
        <CharString name="aring">
          -27 178 624 6 callsubr
          21 -424 -54 callsubr
          -49 139 484 callsubr
        </CharString>
        <CharString name="asciicircum">
          165 204 670 rmoveto
          -126 -376 rlineto
          145 hlineto
          74 255 75 -255 rlineto
          145 hlineto
          -126 376 rlineto
          endchar
        </CharString>
        <CharString name="asciitilde">
          184 404 208 rmoveto
          55 hlineto
          73 28 30 62 hvcurveto
          78 -128 -45 vlineto
          -23 -4 -10 -23 vhcurveto
          -49 -31 78 -86 hhcurveto
          -55 hlineto
          -73 -28 -30 -63 hvcurveto
          -77 128 46 vlineto
          22 5 10 23 vhcurveto
          55 31 -78 79 hhcurveto
          endchar
        </CharString>
        <CharString name="asterisk">
          -97 347 478 rmoveto
          -32 101 -23 -7 -28 -9 -21 -11 -17 -12 rlinecurve
          5 20 4 24 28 vvcurveto
          24 -106 -23 vlineto
          -29 4 -25 6 -19 vhcurveto
          -17 11 -22 11 -27 9 -23 7 rcurveline
          -33 -100 22 -7 28 -10 25 -3 20 -1 rlinecurve
          -16 -13 -17 -17 -17 -23 -15 -20 rcurveline
          86 -62 14 19 17 24 12 22 7 19 rlinecurve
          7 -19 10 -22 17 -23 15 -20 rcurveline
          86 63 -14 19 -17 23 -18 18 -16 12 rlinecurve
          20 1 24 4 27 9 rrcurveto
          endchar
        </CharString>
        <CharString name="at">
          338 242 331 rmoveto
          -148 vlineto
          -63 32 -40 76 vhcurveto
          20 hlineto
          44 27 20 38 7 hvcurveto
          -58 189 vlineto
          82 34 42 69 hvcurveto
          300 vlineto
          69 -33 42 -82 vhcurveto
          -468 hlineto
          -82 -34 -42 -69 hvcurveto
          -472 vlineto
          -68 34 -42 82 vhcurveto
          391 99 -355 hlineto
          -20 -7 6 18 hvcurveto
          446 24 callgsubr
          398 44 callsubr
          -282 vlineto
          -19 423 callsubr
          -44 263 -115 -51 hlineto
          33 -9 -25 18 -41 hhcurveto
          -20 hlineto
          -76 -32 -39 -64 hvcurveto
          123 -11 rmoveto
          17 6 6 18 vhcurveto
          27 hlineto
          18 9 -8 -22 hvcurveto
          -112 vlineto
          -21 -9 -8 -18 vhcurveto
          -27 hlineto
          -18 -6 5 18 hvcurveto
          endchar
        </CharString>
        <CharString name="atilde">
          -27 153 558 rmoveto
          220 callgsubr
          -7 callsubr
          vlineto
          47 -428 -54 callsubr
          -49 139 484 callsubr
        </CharString>
        <CharString name="b">
          -27 261 352 callsubr
          -24 hlineto
          -19 -10 9 23 hvcurveto
          221 vlineto
          23 10 9 19 vhcurveto
          24 371 callsubr
          -2 130 460 callsubr
          137 56 vlineto
          -36 9 27 -20 44 hhcurveto
          25 hlineto
          82 483 callsubr
          274 vlineto
          68 -35 42 -82 vhcurveto
          endchar
        </CharString>
        <CharString name="backslash">
          -58 -1 701 rmoveto
          294 -784 rlineto
          122 hlineto
          -294 784 rlineto
          endchar
        </CharString>
        <CharString name="bar">
          -221 52 799 rmoveto
          -964 129 964 vlineto
          endchar
        </CharString>
        <CharString name="braceleft">
          -151 240 665 rmoveto
          17 8 8 19 vhcurveto
          33 98 -80 hlineto
          -91 -32 -51 -66 hvcurveto
          -215 vlineto
          -64 -21 -28 -53 vhcurveto
          -10 -98 10 hlineto
          53 21 -29 -62 hvcurveto
          -217 vlineto
          -67 32 -50 91 vhcurveto
          80 98 -33 hlineto
          -19 -8 8 17 hvcurveto
          236 vlineto
          70 -30 41 -48 4 vhcurveto
          45 9 33 36 79 vvcurveto
          endchar
        </CharString>
        <CharString name="braceright">
          -151 70 439 rmoveto
          -79 32 -36 45 -9 vhcurveto
          -48 -4 -29 -41 -70 vvcurveto
          -236 vlineto
          -17 -8 -8 -20 vhcurveto
          -33 -98 80 hlineto
          92 32 50 67 hvcurveto
          217 vlineto
          62 20 29 53 vhcurveto
          11 98 -11 hlineto
          -53 -20 28 64 hvcurveto
          215 vlineto
          66 -32 51 -92 vhcurveto
          -80 -98 33 hlineto
          20 8 -8 -17 hvcurveto
          endchar
        </CharString>
        <CharString name="bracketleft">
          -146 285 683 rmoveto
          105 -238 -948 238 105 -95 738 vlineto
          endchar
        </CharString>
        <CharString name="bracketright">
          -146 261 788 rmoveto
          -238 -105 95 -738 -95 -105 238 hlineto
          endchar
        </CharString>
        <CharString name="breve">
          9 287 670 rmoveto
          88 callgsubr
          100 13 callsubr
          32 vlineto
          endchar
        </CharString>
        <CharString name="brokenbar">
          -221 45 258 rmoveto
          -353 143 353 vlineto
          119 vmoveto
          352 -143 -352 vlineto
          endchar
        </CharString>
        <CharString name="bullet">
          -65 56 321 rmoveto
          -78 64 -64 78 78 64 64 78 78 -64 64 -78 -78 -64 -64 -78 vhcurveto
          endchar
        </CharString>
        <CharString name="c">
          -48 389 317 rmoveto
          67 vlineto
          69 224 callsubr
          -102 hlineto
          15 callsubr
          vlineto
          endchar
        </CharString>
        <CharString name="cacute">
          -48 391 670 29 callgsubr
          -108 -32 rmoveto
          15 callsubr
          136 67 vlineto
          69 -36 502 callsubr
        </CharString>
        <CharString name="caron">
          9 168 527 179 callgsubr
          endchar
        </CharString>
        <CharString name="ccaron">
          -48 275 527 -29 callgsubr
          19 -32 rmoveto
          15 callsubr
          136 67 vlineto
          69 -36 502 callsubr
        </CharString>
        <CharString name="ccedilla">
          -48 150 248 callsubr
          239 365 rmoveto
          67 vlineto
          69 224 callsubr
          -102 hlineto
          15 callsubr
          vlineto
          endchar
        </CharString>
        <CharString name="cedilla">
          9 202 248 callsubr
          endchar
        </CharString>
        <CharString name="cent">
          -48 389 317 rmoveto
          67 vlineto
          64 -31 41 -77 5 vhcurveto
          80 -135 -79 vlineto
          -81 -5 -32 -41 -65 vvcurveto
          -273 vlineto
          -65 32 -41 81 -5 vhcurveto
          -79 135 80 vlineto
          77 5 31 41 64 vvcurveto
          67 -136 -48 441 callsubr
          -26 hlineto
          211 callsubr
          18 7 7 20 vhcurveto
          26 44 callsubr
          -48 vlineto
          endchar
        </CharString>
        <CharString name="circumflex">
          9 49 527 245 callsubr
        </CharString>
        <CharString name="colon">
          -242 37 383 rmoveto
          -271 145 271 vlineto
          endchar
        </CharString>
        <CharString name="comma">
          -242 37 -145 rmoveto
          45 hlineto
          100 398 callgsubr
          endchar
        </CharString>
        <CharString name="commaaccent">
          9 164 15 callgsubr
          endchar
        </CharString>
        <CharString name="copyright">
          284 715 339 rmoveto
          182 -56 115 -187 vhcurveto
          -194 hlineto
          -186 -56 -115 -182 hvcurveto
          -45 vlineto
          -182 56 -112 186 vhcurveto
          194 hlineto
          187 56 112 182 hvcurveto
          -413 -207 rmoveto
          -110 -45 48 146 hvcurveto
          71 vlineto
          147 45 50 110 vhcurveto
          147 hlineto
          109 46 -50 -147 hvcurveto
          -71 vlineto
          -146 -46 -48 -109 vhcurveto
          -38 167 rmoveto
          -15 -6 -5 -15 vhcurveto
          -28 hlineto
          -16 -5 5 15 hvcurveto
          133 vlineto
          14 5 5 16 vhcurveto
          28 hlineto
          15 6 -5 -14 hvcurveto
          -31 103 48 vlineto
          52 -28 31 -67 vhcurveto
          -86 hlineto
          -68 -27 -31 -52 hvcurveto
          -167 vlineto
          -52 27 -31 68 vhcurveto
          86 hlineto
          67 28 31 52 hvcurveto
          48 -103 vlineto
          endchar
        </CharString>
        <CharString name="currency">
          92 258 190 rmoveto
          -44 -19 7 55 hvcurveto
          94 vlineto
          55 19 9 44 vhcurveto
          29 hlineto
          44 19 -9 -55 hvcurveto
          -94 vlineto
          -55 -19 -7 -44 vhcurveto
          179 160 rmoveto
          34 -4 30 -11 23 vhcurveto
          48 48 -85 86 -68 -68 rlineto
          -10 -10 1 -11 hhcurveto
          -83 hlineto
          -13 -12 -1 -1 -11 hvcurveto
          -70 69 -84 -86 52 -52 rlineto
          -9 -23 -4 -28 -32 vvcurveto
          -101 vlineto
          -27 3 -24 6 -21 vhcurveto
          -48 -49 84 -85 58 57 rlineto
          -3 14 16 -1 18 hhcurveto
          83 hlineto
          16 14 1 2 13 hvcurveto
          56 -56 85 85 -44 44 rlineto
          8 22 3 26 29 vvcurveto
          endchar
        </CharString>
        <CharString name="d">
          -27 272 callgsubr
          564 rmoveto
          -223 vlineto
          269 callsubr
          vlineto
          endchar
        </CharString>
        <CharString name="dagger">
          -42 411 480 rmoveto
          456 callsubr
          -491 143 491 130 hlineto
          endchar
        </CharString>
        <CharString name="daggerdbl">
          -15 424 382 rmoveto
          98 456 callsubr
          -271 -129 -98 129 -156 143 156 130 98 -130 271 vlineto
          endchar
        </CharString>
        <CharString name="dcaron">
          9 272 callgsubr
          341 rmoveto
          269 callsubr
          -139 vlineto
          181 hmoveto
          -197 36 vlineto
          64 131 rlineto
          66 vlineto
          endchar
        </CharString>
        <CharString name="dcroat">
          -22 205 105 -46 callgsubr
          218 511 rmoveto
          -49 53 -139 -53 -68 -70 68 -100 hlineto
          32 -10 -27 17 -42 465 callsubr
          -273 416 callgsubr
          546 49 vlineto
          endchar
        </CharString>
        <CharString name="degree">
          -15 398 526 rmoveto
          68 -32 42 -90 vhcurveto
          -108 hlineto
          -91 -32 -42 -68 hvcurveto
          -98 vlineto
          -68 32 -42 91 vhcurveto
          108 hlineto
          90 32 42 68 hvcurveto
          -129 5 90 callsubr
          -40 19 callgsubr
          88 24 callgsubr
          40 44 callsubr
          endchar
        </CharString>
        <CharString name="dieresis">
          9 58 542 179 callsubr
          endchar
        </CharString>
        <CharString name="divide">
          26 25 264 493 callsubr
          151 153 rmoveto
          -104 135 104 vlineto
          -135 -308 rmoveto
          -104 135 104 vlineto
          endchar
        </CharString>
        <CharString name="dollar">
          -19 203 370 rmoveto
          -20 -7 6 18 hvcurveto
          112 24 callgsubr
          34 44 callsubr
          -63 143 83 vlineto
          66 -33 42 -86 2 vhcurveto
          82 -135 -82 vlineto
          -87 -2 -33 -42 -66 vvcurveto
          -145 vlineto
          -68 30 -44 88 vhcurveto
          88 hlineto
          20 377 callgsubr
          -115 441 callsubr
          -34 19 callgsubr
          63 -143 -82 vlineto
          -67 34 -41 84 -3 vhcurveto
          -81 135 81 vlineto
          87 2 34 41 68 vvcurveto
          150 vlineto
          68 -31 41 -89 vhcurveto
          endchar
        </CharString>
        <CharString name="dotaccent">
          9 165 540 506 callgsubr
        </CharString>
        <CharString name="dotlessi">
          174 callgsubr
          endchar
        </CharString>
        <CharString name="dvBH_N">
          437 615 280 callsubr
          50 -178 hlineto
          -13 callgsubr
          -353 hmoveto
          364 callgsubr
          139 96 rmoveto
          120 vlineto
          -48 callgsubr
          -105 -99 251 callsubr
          -125 43 callgsubr
          127 74 -127 vlineto
          -81 37 -32 100 vhcurveto
          216 callgsubr
          -73 -34 -20 -42 -11 hvcurveto
          -4 222 rmoveto
          -97 443 97 vlineto
          endchar
        </CharString>
        <CharString name="dvB_N">
          298 476 148 callgsubr
          -299 150 -32 callsubr
          159 72 rmoveto
          38 callsubr
          216 callgsubr
          -92 -30 -32 -67 hvcurveto
          -356 507 callgsubr
          799 97 vlineto
          endchar
        </CharString>
        <CharString name="dvCH_N">
          180 189 -251 rmoveto
          -12 callsubr
          47 726 -100 callsubr
          195 -67 -112 208 callgsubr
          86 -113 105 268 hlineto
          83 4 39 32 77 vvcurveto
          145 callgsubr
        </CharString>
        <CharString name="dvC_N">
          259 443 280 callsubr
          50 -178 hlineto
          -13 callgsubr
          -140 8 342 callgsubr
          -53 -98 callgsubr
          152 19 callsubr
          28 97 -252 -97 73 114 callsubr
          117 491 callsubr
          49 hhcurveto
          81 hlineto
          100 36 -52 callgsubr
          188 96 97 -328 372 callgsubr
          -324 507 callgsubr
          774 97 vlineto
          endchar
        </CharString>
        <CharString name="dvDDH_DDHA">
          14 398 445 callgsubr
          97 97 -515 -97 279 -63 -93 181 callgsubr
          -230 vlineto
          -40 16 -17 -3 callsubr
          -4 -16 -17 -35 vvcurveto
          -160 vlineto
          -81 36 -32 100 vhcurveto
          122 hlineto
          100 36 -52 callgsubr
          34 239 callgsubr
          -78 -97 48 300 callsubr
          -14 455 callsubr
          172 -80 callsubr
          93 hlineto
          100 36 -52 callgsubr
          36 vlineto
          81 -36 31 -100 vhcurveto
          -78 -96 48 300 callsubr
          -16 455 callsubr
          158 -38 callsubr
          endchar
        </CharString>
        <CharString name="dvDD_GA">
          -27 369 386 -38 callgsubr
          -46 14 -29 38 -14 vhcurveto
          -68 vlineto
          -13 -5 -5 -14 vhcurveto
          -21 -70 56 hlineto
          67 21 24 49 hvcurveto
          73 51 -187 104 200 vlineto
          31 15 12 29 42 150 callsubr
        </CharString>
        <CharString name="dvDD_N">
          -27 66 -240 rmoveto
          -12 callsubr
          164 626 174 callsubr
          97 -67 -90 208 callgsubr
          64 -113 104 288 hlineto
          22 17 9 26 36 150 callsubr
        </CharString>
        <CharString name="dvDH_N">
          385 518 280 callsubr
          50 -178 hlineto
          -13 callgsubr
          -140 8 rmoveto
          -39 callgsubr
          188 491 callsubr
          49 hhcurveto
          81 hlineto
          100 36 -52 callgsubr
          188 144 97 -376 372 callgsubr
          -1 259 rmoveto
          1 -97 rlineto
          498 97 hlineto
          endchar
        </CharString>
        <CharString name="dvD_N">
          -25 82 -169 rmoveto
          -12 callsubr
          170 548 93 callsubr
        </CharString>
        <CharString name="dvGH_N">
          275 453 280 callsubr
          50 -178 hlineto
          -13 callgsubr
          303 338 rmoveto
          97 -776 -97 70 vlineto
          297 callgsubr
          115 491 callsubr
          48 hhcurveto
          267 callsubr
          188 89 97 -321 372 callgsubr
          -168 vlineto
          -71 callgsubr
          -71 64 callsubr
          29 8 4 34 vhcurveto
          endchar
        </CharString>
        <CharString name="dvG_N">
          425 603 356 75 callsubr
          -267 -202 -85 callgsubr
          682 461 rmoveto
          -926 -97 -90 callgsubr
          516 vlineto
          endchar
        </CharString>
        <CharString name="dvJH_N">
          408 586 148 callgsubr
          -223 185 rmoveto
          153 526 97 -923 -97 258 -63 -81 vlineto
          -51 callsubr
          71 -30 hlineto
          -81 36 -32 100 vhcurveto
          216 callgsubr
          -92 -29 -32 -67 hvcurveto
          -66 -261 459 callgsubr
          endchar
        </CharString>
        <CharString name="dvJ_N">
          466 688 379 rmoveto
          -178 vlineto
          129 callsubr
          318 97 rmoveto
          -699 -275 hlineto
          -86 callsubr
          77 -188 318 callgsubr
          129 vlineto
          -977 257 rmoveto
          -97 977 97 vlineto
          endchar
        </CharString>
        <CharString name="dvKH_N">
          644 784 280 callsubr
          50 -178 hlineto
          -76 callsubr
          -22 2 callgsubr
          -140 15 rmoveto
          159 callsubr
          151 97 -383 vlineto
          101 callsubr
          -664 507 callgsubr
          226 vlineto
          -86 callgsubr
          777 97 hlineto
          endchar
        </CharString>
        <CharString name="dvK_N">
          462 690 349 rmoveto
          -148 vlineto
          381 callsubr
          333 190 rmoveto
          97 -993 -97 271 -337 vlineto
          -103 callgsubr
          58 -2 hlineto
          -156 188 callgsubr
          158 144 97 -535 vlineto
          232 callgsubr
          vlineto
          endchar
        </CharString>
        <CharString name="dvM_N">
          453 681 201 75 callgsubr
          688 204 rmoveto
          97 -954 -97 701 -107 -528 181 callgsubr
          -142 -77 callgsubr
          144 75 -2 vlineto
          -142 43 callgsubr
          144 114 97 -114 107 vlineto
          endchar
        </CharString>
        <CharString name="dvMatraI.a33">
          -107 callsubr
          1136 hlineto
          29 5 -56 callsubr
        </CharString>
        <CharString name="dvMatraI.a34">
          -107 callsubr
          1165 hlineto
          29 5 -56 callsubr
        </CharString>
        <CharString name="dvMatraI.a35">
          -107 callsubr
          1194 -37 callsubr
        </CharString>
        <CharString name="dvMatraI.a36">
          -107 callsubr
          1223 -37 callsubr
        </CharString>
        <CharString name="dvMatraI.a37">
          -107 callsubr
          1252 -37 callsubr
        </CharString>
        <CharString name="dvMatraI.a38">
          -107 callsubr
          1282 hlineto
          28 6 -56 callsubr
        </CharString>
        <CharString name="dvMatraI.a39">
          -107 callsubr
          1311 hlineto
          28 6 -56 callsubr
        </CharString>
        <CharString name="dvMatraI.a40">
          -107 callsubr
          1339 118 callgsubr
        </CharString>
        <CharString name="dvMatraI.a41">
          -107 callsubr
          1368 118 callgsubr
        </CharString>
        <CharString name="dvMatraI.a42">
          -107 callsubr
          1398 hlineto
          29 5 -56 callsubr
        </CharString>
        <CharString name="dvMatraI.a43">
          -107 callsubr
          1427 hlineto
          29 5 -56 callsubr
        </CharString>
        <CharString name="dvMatraI.a44">
          -107 callsubr
          1456 hlineto
          29 5 -56 callsubr
        </CharString>
        <CharString name="dvMatraI.a45">
          -107 callsubr
          1485 -37 callsubr
        </CharString>
        <CharString name="dvMatraI.a46">
          -107 callsubr
          1514 -37 callsubr
        </CharString>
        <CharString name="dvMatraI.a47">
          -107 callsubr
          1543 hlineto
          29 5 -56 callsubr
        </CharString>
        <CharString name="dvMatraI.a48">
          -107 callsubr
          1572 hlineto
          29 5 -56 callsubr
        </CharString>
        <CharString name="dvMatraI.a49">
          -107 callsubr
          1601 -37 callsubr
        </CharString>
        <CharString name="dvMatraI.a50">
          -107 callsubr
          1630 -37 callsubr
        </CharString>
        <CharString name="dvNG_GA">
          35 386 291 -26 callgsubr
          -46 14 -29 38 -14 vhcurveto
          -68 vlineto
          -13 -5 -5 -14 vhcurveto
          -21 -70 56 hlineto
          67 21 24 49 hvcurveto
          73 51 -187 104 200 vlineto
          31 15 12 29 42 vvcurveto
          -59 callgsubr
          162 153 147 97 hlineto
          endchar
        </CharString>
        <CharString name="dvNG_MA">
          251 497 415 rmoveto
          -107 -116 107 hlineto
          34 -209 rmoveto
          -148 121 hlineto
          67 -30 32 -92 vhcurveto
          -60 38 callgsubr
          30 -99 callsubr
          163 153 167 hlineto
          167 callsubr
          -755 -97 244 -63 -66 hlineto
          101 callsubr
          -59 343 callsubr
          93 vhcurveto
          60 30 callgsubr
          -69 -47 callgsubr
          -28 hlineto
          -15 295 callgsubr
          40 -139 -54 vlineto
          468 callsubr
          60 hlineto
          11 11 1 2 11 hvcurveto
          -109 140 84 148 -148 139 694 65 vlineto
          endchar
        </CharString>
        <CharString name="dvNY_CA">
          420 901 636 rmoveto
          -921 -97 717 136 callgsubr
          -240 -97 60 357 callgsubr
          -23 -90 59 201 callgsubr
          90 -24 158 callgsubr
        </CharString>
        <CharString name="dvN_N">
          433 675 379 rmoveto
          -178 vlineto
          129 callsubr
          -380 -178 -102 callsubr
          678 97 rmoveto
          -771 42 callgsubr
          -188 318 callgsubr
          109 vlineto
          -944 257 rmoveto
          -97 944 97 vlineto
          endchar
        </CharString>
        <CharString name="dvPH_N">
          452 266 -47 callsubr
          438 -160 rmoveto
          -178 vlineto
          -21 -8 152 callsubr
          278 160 rmoveto
          97 -953 105 callgsubr
          58 -2 hlineto
          -186 318 callgsubr
          89 97 -480 vlineto
          -61 callgsubr
          77 vlineto
          endchar
        </CharString>
        <CharString name="dvP_N">
          250 428 148 callgsubr
          303 338 rmoveto
          97 -751 -97 62 257 callsubr
          112 hlineto
          28 16 9 16 7 hvcurveto
          -17 22 33 -8 49 hhcurveto
          82 hlineto
          99 322 callsubr
          -92 -29 -32 -67 hvcurveto
          -168 vlineto
          -71 callgsubr
          -47 -97 callsubr
          338 vlineto
          endchar
        </CharString>
        <CharString name="dvSHA_MatraVocalicR">
          197 188 524 185 callgsubr
          426 -359 rmoveto
          497 64 97 -204 -259 -88 91 callsubr
          143 -157 -8 hlineto
          294 callsubr
          -70 vlineto
          -67 423 callgsubr
          201 97 -158 38 callgsubr
          34 -99 callsubr
          endchar
        </CharString>
        <CharString name="dvSH_VA.aSimp">
          451 178 640 rmoveto
          -106 callsubr
          648 -4 rmoveto
          -490 -97 286 -337 hlineto
          46 callsubr
          -92 140 539 64 vlineto
          endchar
        </CharString>
        <CharString name="dvS_N">
          421 673 201 rmoveto
          129 callsubr
          49 hlineto
          229 97 rmoveto
          -322 hlineto
          166 callsubr
          -20 -80 vlineto
          -40 callgsubr
          517 97 -921 -97 238 hlineto
          26 7 -7 -26 hvcurveto
          -116 vlineto
          -26 -8 -7 -25 vhcurveto
          -37 107 -139 -365 286 callsubr
          278 -70 318 callgsubr
          89 vlineto
          endchar
        </CharString>
        <CharString name="dvTH_N">
          386 540 148 callgsubr
          -139 8 rmoveto
          26 callsubr
          16 9 16 7 hvcurveto
          -17 22 33 -8 49 hhcurveto
          -29 callsubr
          188 112 97 -345 181 callgsubr
          259 vmoveto
          -97 466 97 vlineto
          endchar
        </CharString>
        <CharString name="dvTTH_N">
          -9 79 -243 rmoveto
          -12 callsubr
          -7 340 68 callgsubr
        </CharString>
        <CharString name="dvTTH_TTHA">
          33 322 -83 rmoveto
          329 callgsubr
          289 vmoveto
          329 callgsubr
          187 175 rmoveto
          97 -529 -97 197 -54 vlineto
          -97 -1 -35 -32 -80 vvcurveto
          -95 vlineto
          -80 35 -32 97 -1 vhcurveto
          -47 vlineto
          -97 -1 -35 -31 -80 vvcurveto
          -96 vlineto
          -81 36 -32 100 vhcurveto
          139 hlineto
          100 36 -52 callgsubr
          96 vlineto
          80 -35 31 -97 1 vhcurveto
          47 vlineto
          97 1 35 32 80 vvcurveto
          95 vlineto
          80 -35 32 -97 1 vhcurveto
          54 vlineto
          endchar
        </CharString>
        <CharString name="dvTT_GA">
          -19 398 379 81 callgsubr
          -53 15 -31 38 -16 vhcurveto
          -71 vlineto
          -13 -4 -5 -15 vhcurveto
          -20 -70 55 hlineto
          67 22 24 49 hvcurveto
          73 50 -187 105 205 vlineto
          30 17 12 31 47 178 callsubr
        </CharString>
        <CharString name="dvTT_N">
          -19 80 -249 rmoveto
          -12 callsubr
          179 628 84 callgsubr
        </CharString>
        <CharString name="dvT_KH_NA">
          1023 1089 201 456 callgsubr
          155 257 callgsubr
          412 257 rmoveto
          -1521 157 callgsubr
          260 98 -237 hlineto
          -26 -7 7 26 hvcurveto
          104 72 vlineto
          90 34 30 74 hvcurveto
          175 vlineto
          11 -2 8 -5 6 vhcurveto
          695 -63 -301 9 callsubr
          -161 vlineto
          -22 -9 -7 -19 172 callgsubr
          -30 -32 -67 hvcurveto
          -170 vlineto
          -81 40 48 callsubr
          71 hlineto
          30 18 8 15 9 hvcurveto
          -24 21 36 -11 58 255 callsubr
        </CharString>
        <CharString name="dvT_N">
          259 481 379 rmoveto
          -178 vlineto
          -21 240 callgsubr
          -21 -88 callsubr
          155 -80 callsubr
          308 97 rmoveto
          -577 hlineto
          -84 callsubr
          59 -188 hlineto
          333 callsubr
          119 vlineto
          -760 257 rmoveto
          -97 760 97 vlineto
          endchar
        </CharString>
        <CharString name="dvT_R_KA">
          469 950 471 callsubr
          -970 -97 559 -337 vlineto
          -101 callsubr
          18 385 callsubr
          -29 -32 -67 hvcurveto
          -101 -12 vlineto
          508 callgsubr
          -20 callsubr
          22 hlineto
          -79 1 39 -31 75 hhcurveto
          62 hlineto
          23 14 4 10 9 hvcurveto
          -92 140 352 vlineto
          21 8 6 18 vhcurveto
          33 71 callsubr
          -40 32 -76 -27 callgsubr
        </CharString>
        <CharString name="dvT_S_NA">
          836 1113 476 rmoveto
          -301 9 callsubr
          -20 -79 105 callsubr
          498 hlineto
          -208 -338 68 callsubr
          -1337 -97 469 250 callsubr
          119 53 callgsubr
          148 277 -70 vlineto
          -81 37 -32 99 366 callgsubr
        </CharString>
        <CharString name="dvV_N">
          228 406 280 callsubr
          50 -178 hlineto
          -13 callgsubr
          -140 1 rmoveto
          159 callgsubr
          89 97 -321 372 callgsubr
          -286 507 callgsubr
          729 97 vlineto
          endchar
        </CharString>
        <CharString name="dvY_N">
          346 524 280 callsubr
          49 -178 hlineto
          422 callsubr
          -22 2 callgsubr
          303 435 rmoveto
          -847 -97 158 97 callgsubr
          190 hlineto
          28 16 9 16 7 hvcurveto
          -17 22 33 -8 49 hhcurveto
          267 callsubr
          188 89 97 -321 vlineto
          101 callsubr
          -168 vlineto
          -69 callgsubr
          529 hlineto
          endchar
        </CharString>
        <CharString name="e">
          -32 168 291 -89 callsubr
        </CharString>
        <CharString name="eacute">
          -32 396 670 29 callgsubr
          -105 -236 -89 callsubr
        </CharString>
        <CharString name="ecaron">
          -32 285 527 -29 callgsubr
          17 -236 -89 callsubr
        </CharString>
        <CharString name="ecircumflex">
          -33 220 601 25 callgsubr
          1 -236 -89 callsubr
        </CharString>
        <CharString name="edieresis">
          -33 393 658 51 callgsubr
          -4 -251 -89 callsubr
        </CharString>
        <CharString name="edotaccent">
          -32 288 657 408 callsubr
          -120 -249 -89 callsubr
        </CharString>
        <CharString name="egrave">
          -32 264 527 120 callsubr
          16 -236 -89 callsubr
        </CharString>
        <CharString name="eight">
          49 callgsubr
        </CharString>
        <CharString name="ellipsis">
          216 45 hmoveto
          494 callsubr
          229 -147 rmoveto
          494 callsubr
          229 -147 rmoveto
          494 callsubr
          endchar
        </CharString>
        <CharString name="emacron">
          -32 386 645 294 callgsubr
          -218 -263 -89 callsubr
        </CharString>
        <CharString name="emdash">
          207 32 250 rmoveto
          598 98 -598 hlineto
          endchar
        </CharString>
        <CharString name="endash">
          75 38 250 rmoveto
          386 98 -386 hlineto
          endchar
        </CharString>
        <CharString name="eogonek">
          -32 168 291 rmoveto
          80 -66 callsubr
          6 20 vhcurveto
          46 hlineto
          19 377 callgsubr
          -80 vlineto
          -106 204 rmoveto
          -91 -35 146 callgsubr
          35 -42 91 vhcurveto
          25 -19 -6 hlineto
          73 callgsubr
          -87 hlineto
          99 callsubr
          103 3 13 callsubr
          48 -134 -33 vlineto
          -19 358 callgsubr
          -45 hlineto
          -20 -7 6 18 hvcurveto
          85 233 175 vlineto
          69 -36 502 callsubr
        </CharString>
        <CharString name="equal">
          29 27 363 rmoveto
          437 108 -437 hlineto
          -308 vmoveto
          437 108 -437 hlineto
          endchar
        </CharString>
        <CharString name="eth">
          -11 271 130 rmoveto
          335 callgsubr
          -45 19 callgsubr
          170 24 callgsubr
          70 hlineto
          1 -6 0 -7 -6 vvcurveto
          115 250 rmoveto
          73 vlineto
          -89 -28 -13 14 -12 12 -11 9 rlinecurve
          -193 hlineto
          23 -17 35 -26 35 -36 -60 -19 rcurveline
          -73 vlineto
          107 34 16 -23 14 -25 11 -28 rlinecurve
          -89 373 callgsubr
          -201 244 callsubr
          91 vhcurveto
          122 13 callsubr
          197 vlineto
          99 -31 78 -36 57 vhcurveto
          endchar
        </CharString>
        <CharString name="exclam">
          -198 50 636 rmoveto
          25 -414 rlineto
          114 hlineto
          24 414 rlineto
          -154 -636 rmoveto
          397 callsubr
          endchar
        </CharString>
        <CharString name="exclamdown">
          -198 59 347 rmoveto
          397 callsubr
          154 -636 rmoveto
          -24 414 rlineto
          -114 hlineto
          -25 -414 rlineto
          endchar
        </CharString>
        <CharString name="f">
          -182 274 566 rmoveto
          103 -89 vlineto
          -91 -35 -42 -68 hvcurveto
          -64 -50 -105 50 -390 139 390 76 105 -76 46 24 callgsubr
          endchar
        </CharString>
        <CharString name="fi">
          -2 418 495 rmoveto
          -222 48 hlineto
          18 7 6 20 vhcurveto
          18 102 -56 hlineto
          -91 -35 -42 -68 hvcurveto
          -64 -50 -105 50 -390 137 390 84 -390 138 vlineto
          -138 669 rmoveto
          -102 138 102 vlineto
          endchar
        </CharString>
        <CharString name="five">
          147 callgsubr
        </CharString>
        <CharString name="fl">
          -2 281 669 rmoveto
          -174 -85 48 -66 callsubr
          6 20 vhcurveto
          18 102 -56 hlineto
          -91 -35 -42 -68 hvcurveto
          -64 -50 -105 50 -390 137 390 85 -390 137 669 vlineto
          endchar
        </CharString>
        <CharString name="florin">
          -48 374 562 rmoveto
          107 -91 vlineto
          -91 -26 -43 -67 -10 hvcurveto
          -9 -64 rlineto
          -80 -105 65 hlineto
          -56 -404 rlineto
          -18 -2 -5 -7 -20 hhcurveto
          -51 -106 91 hlineto
          91 26 43 67 10 hvcurveto
          59 425 rlineto
          98 105 -83 hlineto
          6 43 rlineto
          18 2 5 6 20 hhcurveto
          endchar
        </CharString>
        <CharString name="four">
          227 callsubr
        </CharString>
        <CharString name="fraction">
          256 callgsubr
        </CharString>
        <CharString name="g">
          -27 200 126 87 callgsubr
        </CharString>
        <CharString name="gbreve">
          -27 200 126 rmoveto
          -18 callgsubr
          214 347 callsubr
          -200 497 callsubr
          313 rmoveto
          350 callsubr
          -252 334 callsubr
          -76 vlineto
          -19 -8 -6 -19 vhcurveto
          -172 -102 212 hlineto
          90 182 callsubr
          517 -137 vlineto
          13 175 rmoveto
          88 callgsubr
          100 13 callsubr
          32 vlineto
          endchar
        </CharString>
        <CharString name="germandbls">
          140 239 159 rmoveto
          -48 vlineto
          -68 33 -42 88 -1 vhcurveto
          103 hlineto
          90 29 42 69 hvcurveto
          75 vlineto
          69 -36 42 -90 vhcurveto
          -51 hlineto
          -20 -7 6 18 hvcurveto
          19 -66 callsubr
          6 20 vhcurveto
          22 hlineto
          88 22 28 65 hvcurveto
          64 vlineto
          64 -36 41 -85 vhcurveto
          -251 hlineto
          -91 -29 -42 -68 hvcurveto
          -516 143 495 24 callgsubr
          148 hlineto
          19 5 -7 -18 hvcurveto
          -22 vlineto
          -17 -5 -6 -22 -83 -35 -33 -69 vhcurveto
          -35 vlineto
          -68 28 -42 91 vhcurveto
          55 371 callsubr
          -55 vlineto
          -19 423 callsubr
          -15 hlineto
          -18 1 -5 6 18 vvcurveto
          36 vlineto
          endchar
        </CharString>
        <CharString name="grave">
          9 247 670 339 callsubr
        </CharString>
        <CharString name="greater">
          29 327 319 rmoveto
          -300 -83 rlineto
          -115 vlineto
          437 137 rlineto
          126 vlineto
          -437 131 rlineto
          -114 vlineto
          endchar
        </CharString>
        <CharString name="greaterequal">
          42 364 407 rmoveto
          -331 -49 rlineto
          -109 vlineto
          438 100 rlineto
          120 vlineto
          -438 92 rlineto
          -107 vlineto
          -324 vmoveto
          438 99 -438 hlineto
          endchar
        </CharString>
        <CharString name="guillemotleft">
          36 137 99 rmoveto
          134 hlineto
          -112 154 112 152 rlineto
          -134 hlineto
          -114 -152 rlineto
          322 -154 rmoveto
          135 hlineto
          -113 154 113 152 rlineto
          -135 hlineto
          -113 -152 rlineto
          endchar
        </CharString>
        <CharString name="guillemotright">
          36 271 253 rmoveto
          -113 152 rlineto
          -135 504 callgsubr
          135 hlineto
          322 154 rmoveto
          -114 152 rlineto
          -134 hlineto
          112 -152 -112 -154 rlineto
          134 hlineto
          endchar
        </CharString>
        <CharString name="guilsinglleft">
          -166 137 99 rmoveto
          141 hlineto
          -112 154 112 152 rlineto
          -141 hlineto
          -114 -152 rlineto
          endchar
        </CharString>
        <CharString name="guilsinglright">
          -165 278 253 rmoveto
          -113 152 rlineto
          -142 504 callgsubr
          142 hlineto
          endchar
        </CharString>
        <CharString name="h">
          -22 259 495 460 callsubr
          139 358 vlineto
          23 10 9 19 vhcurveto
          24 44 callsubr
          -365 140 384 341 callgsubr
        </CharString>
        <CharString name="hungarumlaut">
          9 208 527 492 callsubr
          -255 -143 492 callsubr
          endchar
        </CharString>
        <CharString name="hyphen">
          452 callsubr
        </CharString>
        <CharString name="i">
          174 callgsubr
          -3 561 505 callsubr
        </CharString>
        <CharString name="iacute">
          174 callgsubr
          10 527 149 callgsubr
          endchar
        </CharString>
        <CharString name="icircumflex">
          174 callgsubr
          -118 527 245 callsubr
        </CharString>
        <CharString name="idieresis">
          174 callgsubr
          -110 542 179 callsubr
          endchar
        </CharString>
        <CharString name="igrave">
          174 callgsubr
          36 670 339 callsubr
        </CharString>
        <CharString name="imacron">
          174 callgsubr
          -103 554 453 callgsubr
        </CharString>
        <CharString name="infinity">
          140 490 301 rmoveto
          -25 -3 -8 -27 vhcurveto
          -35 hlineto
          -22 -14 16 18 -12 hvcurveto
          -28 41 33 57 rlineto
          19 11 8 9 17 hhcurveto
          42 hlineto
          27 3 -10 -23 hvcurveto
          -350 -127 rmoveto
          -26 -3 8 25 hvcurveto
          93 vlineto
          24 3 9 26 vhcurveto
          25 hlineto
          24 14 -16 -22 15 hvcurveto
          29 -44 -29 -48 rlineto
          -15 -9 -17 -14 -21 hhcurveto
          247 249 rmoveto
          -65 -13 -16 -60 -36 hvcurveto
          -9 -14 -9 14 rlineto
          50 -34 -23 26 -59 hhcurveto
          -38 hlineto
          -91 -35 -43 -66 hvcurveto
          -120 vlineto
          -67 35 -43 91 vhcurveto
          33 hlineto
          72 22 11 63 37 hvcurveto
          4 8 10 -14 rlineto
          -53 38 25 -15 61 hhcurveto
          34 hlineto
          92 34 43 67 hvcurveto
          120 vlineto
          66 -34 43 -92 vhcurveto
          endchar
        </CharString>
        <CharString name="integral">
          -50 282 571 rmoveto
          18 1 6 7 20 hhcurveto
          51 107 -91 hlineto
          -91 -36 -43 -68 hvcurveto
          -599 vlineto
          -18 -2 -5 -7 -19 hhcurveto
          -51 -106 90 hlineto
          91 36 42 68 hvcurveto
          endchar
        </CharString>
        <CharString name="iogonek">
          -238 184 669 rmoveto
          -145 -108 145 hlineto
          -72 -732 rmoveto
          99 callsubr
          598 -139 -495 55 -19 -6 hlineto
          406 callsubr
        </CharString>
        <CharString name="itfLogo">
          1187 147 hmoveto
          265 callsubr
          236 -634 rmoveto
          265 callsubr
          236 -634 rmoveto
          265 callsubr
          -410 vmoveto
          196 185 -196 hlineto
          endchar
        </CharString>
        <CharString name="itfStar">
          211 663 452 rmoveto
          -28 -200 -6 -2 -34 hvcurveto
          -66 246 -8 -27 -53 -188 -8 -31 rlinecurve
          -261 8 25 -15 168 -108 28 -17 rlinecurve
          -96 -247 24 20 152 128 29 20 rlinecurve
          204 -168 -11 28 -71 189 -12 30 rlinecurve
          endchar
        </CharString>
        <CharString name="j">
          -238 42 -6 rmoveto
          -19 -8 -6 -19 vhcurveto
          -28 -102 68 hlineto
          90 182 callsubr
          517 -139 vlineto
          -3 66 505 callsubr
        </CharString>
        <CharString name="k">
          -31 42 hmoveto
          139 669 -139 hlineto
          390 -174 366 callsubr
        </CharString>
        <CharString name="l">
          -238 181 hmoveto
          436 callgsubr
          endchar
        </CharString>
        <CharString name="lacute">
          -238 54 701 149 callgsubr
          36 -844 rmoveto
          436 callgsubr
          endchar
        </CharString>
        <CharString name="lcaron">
          -195 181 hmoveto
          436 callgsubr
          181 472 rmoveto
          36 hlineto
          64 131 rlineto
          66 -100 vlineto
          endchar
        </CharString>
        <CharString name="less">
          29 464 401 rmoveto
          114 vlineto
          -437 -131 rlineto
          -126 vlineto
          437 -137 rlineto
          115 vlineto
          -301 83 rlineto
          endchar
        </CharString>
        <CharString name="lessequal">
          42 468 454 rmoveto
          107 vlineto
          -438 -92 rlineto
          -120 vlineto
          438 -100 rlineto
          109 vlineto
          -331 49 rlineto
          331 -178 rmoveto
          -438 -99 438 hlineto
          endchar
        </CharString>
        <CharString name="logicalnot">
          66 473 410 rmoveto
          -429 -142 330 -144 99 hlineto
          endchar
        </CharString>
        <CharString name="lozenge">
          162 304 109 rmoveto
          -104 210 104 209 109 -209 rlineto
          -40 317 rmoveto
          -138 hlineto
          -174 -317 174 -318 rlineto
          138 hlineto
          179 318 rlineto
          endchar
        </CharString>
        <CharString name="lslash">
          -228 286 503 rmoveto
          -100 -48 rlineto
          214 -139 -280 vlineto
          -94 -45 rlineto
          -98 vlineto
          94 45 rlineto
          -291 139 357 vlineto
          100 48 rlineto
          endchar
        </CharString>
        <CharString name="m">
          196 479 495 rmoveto
          -45 -33 -21 -35 -10 hvcurveto
          36 -16 -34 20 -57 hhcurveto
          -25 hlineto
          278 callsubr
          -495 139 358 vlineto
          23 10 9 19 vhcurveto
          24 44 callsubr
          -365 140 358 vlineto
          23 9 9 20 vhcurveto
          24 hlineto
          19 8 -7 -18 hvcurveto
          -365 139 384 vlineto
          69 -34 42 -83 vhcurveto
          endchar
        </CharString>
        <CharString name="macron">
          9 63 554 453 callgsubr
        </CharString>
        <CharString name="minus">
          119 18 264 493 callsubr
          endchar
        </CharString>
        <CharString name="multiply">
          -19 421 429 rmoveto
          -81 82 -118 -118 -119 118 -81 -82 118 -118 -118 -118 81 -82 119 119 118 -119 81 82 -118 118 rlineto
          endchar
        </CharString>
        <CharString name="n">
          -22 259 495 7 callgsubr
        </CharString>
        <CharString name="nacute">
          -22 385 670 29 callgsubr
          -3 -32 7 callgsubr
        </CharString>
        <CharString name="ncaron">
          -22 278 527 -29 callgsubr
          115 -32 7 callgsubr
        </CharString>
        <CharString name="nine">
          82 callsubr
        </CharString>
        <CharString name="notequal">
          54 359 423 rmoveto
          62 117 rlineto
          -92 hlineto
          -62 -117 rlineto
          -234 -209 124 hlineto
          -63 -119 rlineto
          93 hlineto
          63 119 rlineto
          233 209 hlineto
          endchar
        </CharString>
        <CharString name="ntilde">
          -22 149 558 rmoveto
          220 callgsubr
          -7 callsubr
          vlineto
          110 -38 7 callgsubr
        </CharString>
        <CharString name="numbersign">
          148 342 244 rmoveto
          -105 hlineto
          30 148 rlineto
          105 hlineto
          207 hmoveto
          94 -66 vlineto
          31 149 rlineto
          -121 hlineto
          -31 -149 rlineto
          -105 hlineto
          31 149 rlineto
          -121 hlineto
          -31 -149 rlineto
          -94 -94 74 hlineto
          -30 -148 rlineto
          -86 -95 66 475 callgsubr
          105 475 callgsubr
          94 95 -74 hlineto
          30 148 rlineto
          endchar
        </CharString>
        <CharString name="o">
          -22 265 125 -81 callgsubr
        </CharString>
        <CharString name="oacute">
          -22 402 670 29 callgsubr
          -14 -402 -81 callgsubr
        </CharString>
        <CharString name="ocircumflex">
          -22 219 601 25 callgsubr
          99 -402 -81 callgsubr
        </CharString>
        <CharString name="odieresis">
          -22 396 658 51 callgsubr
          90 -417 -81 callgsubr
        </CharString>
        <CharString name="oe">
          278 394 293 rmoveto
          75 443 callsubr
          40 hlineto
          19 8 -6 -19 hvcurveto
          -75 vlineto
          -230 -158 rmoveto
          -21 -1 -9 -9 -20 hhcurveto
          -23 hlineto
          -20 -7 7 18 hvcurveto
          235 433 callsubr
          9 -9 -21 1 hvcurveto
          171 135 rmoveto
          390 callgsubr
          -273 218 callgsubr
          230 178 vlineto
          69 -36 502 callsubr
        </CharString>
        <CharString name="ogonek">
          9 261 -171 rmoveto
          99 callsubr
          117 -84 -33 -6 hlineto
          406 callsubr
        </CharString>
        <CharString name="ograve">
          -22 271 527 120 callsubr
          106 -402 -81 callgsubr
        </CharString>
        <CharString name="ohungarumlaut">
          -22 343 527 127 callgsubr
          85 -402 -81 callgsubr
        </CharString>
        <CharString name="omacron">
          -22 385 645 294 callgsubr
          -120 -429 -81 callgsubr
        </CharString>
        <CharString name="one">
          406 callgsubr
        </CharString>
        <CharString name="onesuperior">
          -271 147 636 rmoveto
          -137 -61 46 -289 91 hlineto
          endchar
        </CharString>
        <CharString name="ordfeminine">
          -154 132 359 rmoveto
          -14 -5 5 13 hvcurveto
          170 vlineto
          13 5 5 14 vhcurveto
          36 hlineto
          14 7 -7 -16 hvcurveto
          -160 vlineto
          -16 -7 -7 -14 vhcurveto
          23 277 rmoveto
          -38 vlineto
          25 -5 -17 13 -31 hhcurveto
          -30 hlineto
          -59 -24 -29 -49 hvcurveto
          -193 vlineto
          -49 24 -30 59 vhcurveto
          32 hlineto
          27 15 10 20 7 hvcurveto
          -30 88 350 vlineto
          endchar
        </CharString>
        <CharString name="ordmasculine">
          -161 186 364 rmoveto
          -13 -5 -4 -14 vhcurveto
          -35 hlineto
          -14 -5 4 13 hvcurveto
          193 vlineto
          14 5 4 14 vhcurveto
          35 hlineto
          14 5 -4 -14 hvcurveto
          -74 79 rmoveto
          -64 -23 -29 -49 hvcurveto
          -193 vlineto
          -49 23 -30 64 vhcurveto
          75 hlineto
          64 23 30 49 hvcurveto
          193 vlineto
          49 -23 29 -64 vhcurveto
          endchar
        </CharString>
        <CharString name="oslash">
          -19 271 120 rmoveto
          -19 -8 -6 -20 vhcurveto
          -45 hlineto
          -15 -8 3 10 -3 hvcurveto
          99 168 rlineto
          -100 99 rmoveto
          106 callsubr
          45 hlineto
          15 8 -4 -10 3 hvcurveto
          -98 -167 rlineto
          240 296 rmoveto
          -66 hlineto
          -15 -25 rlineto
          3 -14 -16 2 -19 hhcurveto
          -120 hlineto
          -91 -32 181 callsubr
          -33 7 -26 17 -19 vhcurveto
          -31 -53 rlineto
          66 hlineto
          15 25 rlineto
          -3 14 16 -2 19 hhcurveto
          120 hlineto
          90 33 42 69 hvcurveto
          273 vlineto
          32 -7 27 -17 19 vhcurveto
          endchar
        </CharString>
        <CharString name="otilde">
          -22 153 558 rmoveto
          220 callgsubr
          -7 callsubr
          vlineto
          112 -408 -81 callgsubr
        </CharString>
        <CharString name="p">
          -27 261 352 callsubr
          -24 hlineto
          -19 -10 9 23 hvcurveto
          221 vlineto
          23 10 9 19 vhcurveto
          24 44 callsubr
          -2 130 rmoveto
          278 callsubr
          -628 139 330 callgsubr
        </CharString>
        <CharString name="paragraph">
          84 314 636 rmoveto
          -152 hlineto
          243 callgsubr
          -199 244 callsubr
          91 vhcurveto
          37 -349 115 hlineto
          62 769 rmoveto
          -769 115 769 vlineto
          endchar
        </CharString>
        <CharString name="parenleft">
          -152 43 180 rmoveto
          -226 91 -124 165 vhcurveto
          11 119 -10 hlineto
          -72 3 -43 73 153 vvcurveto
          275 vlineto
          152 43 74 72 2 vhcurveto
          10 1 rlineto
          118 -11 vlineto
          -165 -91 -123 -226 hvcurveto
          endchar
        </CharString>
        <CharString name="parenright">
          -152 266 451 rmoveto
          226 -91 123 -166 vhcurveto
          -11 -118 hlineto
          11 -1 rlineto
          72 -2 42 -74 -152 vvcurveto
          -275 vlineto
          -153 -42 -73 -72 -3 vhcurveto
          -11 -119 11 hlineto
          166 91 124 226 hvcurveto
          endchar
        </CharString>
        <CharString name="percent">
          340 32 callsubr
          endchar
        </CharString>
        <CharString name="period">
          -242 37 hmoveto
          397 callsubr
          endchar
        </CharString>
        <CharString name="periodcentered">
          -210 43 258 rmoveto
          145 142 -145 hlineto
          endchar
        </CharString>
        <CharString name="perthousand">
          674 32 callsubr
          487 -361 rmoveto
          57 -29 34 -74 vhcurveto
          -89 hlineto
          -74 -28 -34 -57 hvcurveto
          -184 vlineto
          -56 28 -35 74 vhcurveto
          89 hlineto
          74 29 35 56 hvcurveto
          -116 17 rmoveto
          -16 -5 -5 -17 vhcurveto
          -18 hlineto
          -18 340 callgsubr
          18 vhcurveto
          18 hlineto
          17 5 -6 -16 hvcurveto
          endchar
        </CharString>
        <CharString name="pi">
          58 512 495 rmoveto
          -444 -364 hlineto
          357 callsubr
          -34 -107 74 341 callsubr
          286 91 -397 143 397 71 vlineto
          endchar
        </CharString>
        <CharString name="plus">
          12 455 370 rmoveto
          -151 153 -135 -153 -151 -106 151 -153 135 153 151 hlineto
          endchar
        </CharString>
        <CharString name="plusminus">
          29 27 151 493 callsubr
          286 210 rmoveto
          77 -135 -77 -151 -103 151 -76 135 76 151 103 vlineto
          endchar
        </CharString>
        <CharString name="product">
          39 62 636 rmoveto
          -505 327 callsubr
          -32 -107 72 341 callsubr
          427 111 -538 143 636 vlineto
          endchar
        </CharString>
        <CharString name="q">
          -27 200 105 -54 callsubr
          -182 139 628 vlineto
          endchar
        </CharString>
        <CharString name="question">
          -40 125 hmoveto
          397 callsubr
          22 488 rmoveto
          -92 -35 -43 -67 hvcurveto
          -82 143 69 -66 callsubr
          7 19 vhcurveto
          35 hlineto
          20 6 -7 -18 hvcurveto
          -121 vlineto
          -18 -6 -7 -20 vhcurveto
          -97 hlineto
          13 -145 306 callgsubr
          6 63 rlineto
          2 hlineto
          91 35 43 67 hvcurveto
          131 vlineto
          67 -35 43 -91 vhcurveto
          endchar
        </CharString>
        <CharString name="questiondown">
          -40 288 495 rmoveto
          -145 -148 145 hlineto
          -38 -296 rmoveto
          -69 vlineto
          335 callgsubr
          -35 hlineto
          -20 -6 7 18 hvcurveto
          121 vlineto
          18 6 7 20 vhcurveto
          97 hlineto
          -13 145 rlineto
          -119 hlineto
          -6 -63 rlineto
          -2 hlineto
          -91 -35 -43 -67 hvcurveto
          -131 vlineto
          -67 35 -43 91 vhcurveto
          120 hlineto
          92 35 43 67 hvcurveto
          82 vlineto
          endchar
        </CharString>
        <CharString name="quotedbl">
          -81 39 636 rmoveto
          -250 126 250 vlineto
          50 hmoveto
          -250 127 250 vlineto
          endchar
        </CharString>
        <CharString name="quotedblbase">
          -54 225 -145 rmoveto
          40 hlineto
          105 398 callgsubr
          -188 -293 rmoveto
          40 hlineto
          105 398 callgsubr
          endchar
        </CharString>
        <CharString name="quotedblleft">
          -54 182 636 rmoveto
          -40 hlineto
          -105 -213 rlineto
          -81 145 vlineto
          188 294 rmoveto
          -40 hlineto
          -105 -213 rlineto
          -81 145 vlineto
          endchar
        </CharString>
        <CharString name="quotedblright">
          -54 225 342 rmoveto
          40 hlineto
          105 214 rlineto
          80 -145 vlineto
          -188 -294 rmoveto
          40 hlineto
          105 214 rlineto
          80 -145 vlineto
          endchar
        </CharString>
        <CharString name="quoteleft">
          -241 183 636 rmoveto
          -41 hlineto
          -105 -213 rlineto
          -81 146 vlineto
          endchar
        </CharString>
        <CharString name="quoteright">
          -241 37 342 rmoveto
          41 hlineto
          105 214 rlineto
          80 -146 vlineto
          endchar
        </CharString>
        <CharString name="quotesinglbase">
          -242 37 -145 rmoveto
          45 hlineto
          100 398 callgsubr
          endchar
        </CharString>
        <CharString name="quotesingle">
          -249 39 636 rmoveto
          -250 134 250 vlineto
          endchar
        </CharString>
        <CharString name="r">
          -163 276 498 309 callgsubr
        </CharString>
        <CharString name="racute">
          -163 346 670 29 callgsubr
          -44 303 callsubr
        </CharString>
        <CharString name="rcaron">
          -163 234 527 -29 callgsubr
          79 303 callsubr
        </CharString>
        <CharString name="registered">
          -7 422 548 rmoveto
          105 -32 66 -108 vhcurveto
          -111 hlineto
          -108 -31 -66 -105 hvcurveto
          -25 vlineto
          -104 31 -65 108 vhcurveto
          111 hlineto
          108 32 65 104 hvcurveto
          -237 -116 rmoveto
          -63 -26 24 84 hvcurveto
          41 vlineto
          84 26 26 63 vhcurveto
          84 hlineto
          63 26 -26 -84 hvcurveto
          -41 vlineto
          -84 -26 -24 -63 vhcurveto
          -105 228 rmoveto
          -196 49 72 7 vlineto
          32 -72 rlineto
          53 hlineto
          -37 74 rlineto
          18 5 7 13 18 vvcurveto
          49 vlineto
          24 -12 13 -31 vhcurveto
          -6 -80 rmoveto
          -5 -2 -2 -5 vhcurveto
          -24 52 24 hlineto
          5 2 -2 -5 hvcurveto
          endchar
        </CharString>
        <CharString name="ring">
          9 365 607 rmoveto
          51 -24 31 -67 vhcurveto
          -78 hlineto
          -67 -24 -31 -51 hvcurveto
          -16 vlineto
          -52 24 -30 67 vhcurveto
          78 hlineto
          67 24 30 52 hvcurveto
          -89 2 rmoveto
          -16 -5 -41 callsubr
          -36 hlineto
          -18 -4 5 16 hvcurveto
          11 vlineto
          16 4 6 18 vhcurveto
          36 hlineto
          18 5 -6 -16 hvcurveto
          endchar
        </CharString>
        <CharString name="s">
          -60 237 119 -64 callsubr
        </CharString>
        <CharString name="sacute">
          -60 151 527 149 callgsubr
          -5 -551 -64 callsubr
        </CharString>
        <CharString name="scaron">
          -60 132 527 179 callgsubr
          224 -551 -64 callsubr
        </CharString>
        <CharString name="section">
          294 436 371 rmoveto
          92 callsubr
          -86 vlineto
          -19 423 callsubr
          -50 hlineto
          -19 -8 6 19 hvcurveto
          86 vlineto
          18 8 7 19 vhcurveto
          215 149 rmoveto
          38 vlineto
          69 224 callsubr
          -108 373 callgsubr
          -77 vlineto
          -30 7 -26 16 -18 vhcurveto
          -26 -19 -9 -33 -43 vvcurveto
          -65 vlineto
          -68 36 -42 90 vhcurveto
          63 44 callsubr
          -56 327 callsubr
          -28 hlineto
          -20 -7 6 18 hvcurveto
          29 -140 -38 vlineto
          -68 36 -42 91 vhcurveto
          108 hlineto
          91 36 42 68 hvcurveto
          78 vlineto
          27 -6 23 -12 18 vhcurveto
          23 19 8 32 40 vvcurveto
          74 vlineto
          69 224 callsubr
          -63 hlineto
          -20 -7 6 18 hvcurveto
          56 443 callsubr
          28 371 callsubr
          -29 vlineto
          endchar
        </CharString>
        <CharString name="semicolon">
          -242 37 346 rmoveto
          145 149 -145 hlineto
          -640 vmoveto
          45 hlineto
          100 398 callgsubr
          endchar
        </CharString>
        <CharString name="seven">
          308 callsubr
        </CharString>
        <CharString name="six">
          85 callgsubr
        </CharString>
        <CharString name="slash">
          256 callgsubr
        </CharString>
        <CharString name="space">
          -282 endchar
        </CharString>
        <CharString name="sterling">
          0 187 105 rmoveto
          21 15 5 27 34 vvcurveto
          72 142 98 -142 155 24 callgsubr
          29 44 callsubr
          -73 143 93 221 callsubr
          -115 hlineto
          243 callgsubr
          -175 -45 -98 45 -67 vlineto
          -56 -5 -27 -40 -4 vhcurveto
          -99 418 105 vlineto
          endchar
        </CharString>
        <CharString name="t">
          -190 261 390 287 callsubr
        </CharString>
        <CharString name="tcaron">
          -190 196 587 rmoveto
          -139 -92 -52 -105 52 -279 hlineto
          -69 36 -42 90 vhcurveto
          78 107 -38 hlineto
          -19 -8 6 18 hvcurveto
          259 65 105 -65 vlineto
          43 213 rmoveto
          -178 36 vlineto
          68 112 rlineto
          66 vlineto
          endchar
        </CharString>
        <CharString name="thorn">
          -20 257 352 callsubr
          -24 hlineto
          -20 -9 9 23 hvcurveto
          221 vlineto
          23 9 9 20 vhcurveto
          24 44 callsubr
          -2 130 rmoveto
          372 callsubr
          230 -138 -802 140 330 callgsubr
        </CharString>
        <CharString name="three">
          66 callgsubr
        </CharString>
        <CharString name="threesuperior">
          -204 103 562 rmoveto
          9 3 4 11 vhcurveto
          15 hlineto
          11 4 -4 -9 hvcurveto
          -59 vlineto
          -10 -4 -3 -11 vhcurveto
          -35 -58 35 hlineto
          11 4 -3 -10 hvcurveto
          -58 vlineto
          -10 -4 -4 -11 vhcurveto
          -15 hlineto
          -11 -3 4 10 hvcurveto
          38 -89 -52 vlineto
          -38 20 -23 50 vhcurveto
          81 hlineto
          50 19 23 38 hvcurveto
          67 vlineto
          24 -5 16 -19 8 vhcurveto
          19 8 5 18 25 vvcurveto
          63 vlineto
          37 -19 23 -50 vhcurveto
          -81 hlineto
          -50 -20 -23 -37 hvcurveto
          -52 89 vlineto
          endchar
        </CharString>
        <CharString name="tilde">
          9 304 533 rmoveto
          -7 callsubr
          25 vlineto
          220 callgsubr
          endchar
        </CharString>
        <CharString name="trademark">
          230 9 552 rmoveto
          84 -245 105 245 85 84 -274 hlineto
          542 hmoveto
          -64 -185 -64 185 rlineto
          -110 -329 92 178 hlineto
          43 -130 rlineto
          78 hlineto
          43 131 rlineto
          -179 92 329 vlineto
          endchar
        </CharString>
        <CharString name="two">
          132 callsubr
        </CharString>
        <CharString name="twosuperior">
          -206 102 562 rmoveto
          9 3 4 12 vhcurveto
          13 hlineto
          11 3 -4 -9 hvcurveto
          -30 vlineto
          -30 -2 -13 -17 -20 vhcurveto
          -110 -125 rlineto
          -58 218 65 -111 vlineto
          75 89 rlineto
          23 25 12 29 43 vvcurveto
          39 vlineto
          37 -19 23 -50 vhcurveto
          -80 hlineto
          -50 -20 -23 -37 hvcurveto
          -65 89 vlineto
          endchar
        </CharString>
        <CharString name="u">
          -22 258 495 -50 callgsubr
        </CharString>
        <CharString name="uacute">
          -22 391 670 29 callgsubr
          -10 -32 -50 callgsubr
        </CharString>
        <CharString name="ucircumflex">
          -24 217 601 25 callgsubr
          94 -32 -50 callgsubr
        </CharString>
        <CharString name="udieresis">
          -13 393 658 51 callgsubr
          86 -47 -50 callgsubr
        </CharString>
        <CharString name="ugrave">
          -22 278 527 120 callsubr
          92 -32 -50 callgsubr
        </CharString>
        <CharString name="uhungarumlaut">
          -22 342 527 127 callgsubr
          79 -32 -50 callgsubr
        </CharString>
        <CharString name="umacron">
          -22 388 645 294 callgsubr
          -130 -59 -50 callgsubr
        </CharString>
        <CharString name="underscore">
          13 -139 vmoveto
          474 98 -474 hlineto
          endchar
        </CharString>
        <CharString name="uni00A0">
          -282 endchar
        </CharString>
        <CharString name="uni00AD">
          452 callsubr
        </CharString>
        <CharString name="uni00B5">
          -17 260 495 rmoveto
          -358 327 callgsubr
          -23 19 callgsubr
          365 -140 -628 140 133 1 vlineto
          45 27 20 36 9 hvcurveto
          -56 137 484 callsubr
        </CharString>
        <CharString name="uni0122">
          -5 168 15 callgsubr
          253 478 36 callgsubr
        </CharString>
        <CharString name="uni0123">
          -27 298 752 rmoveto
          -45 hlineto
          -96 -153 rlineto
          -72 141 vlineto
          -98 -401 87 callgsubr
        </CharString>
        <CharString name="uni0136">
          14 187 636 rmoveto
          -142 446 callgsubr
          hlineto
          -24 15 callgsubr
          304 684 rmoveto
          361 callgsubr
        </CharString>
        <CharString name="uni0137">
          -31 181 669 rmoveto
          -139 -669 139 hlineto
          -27 350 callgsubr
          278 543 366 callsubr
        </CharString>
        <CharString name="uni013B">
          -90 135 15 callgsubr
          52 153 291 callsubr
        </CharString>
        <CharString name="uni013C">
          -238 41 350 callgsubr
          140 48 rmoveto
          436 callgsubr
          endchar
        </CharString>
        <CharString name="uni0145">
          25 164 15 callgsubr
          147 684 103 callsubr
        </CharString>
        <CharString name="uni0146">
          -22 150 15 callgsubr
          109 543 7 callgsubr
        </CharString>
        <CharString name="uni0156">
          8 159 15 callgsubr
          28 579 rmoveto
          439 callgsubr
          -143 vlineto
          -18 -7 -6 -19 vhcurveto
          -77 hlineto
          166 -97 rmoveto
          57 13 23 38 55 vvcurveto
          178 478 callgsubr
          -262 446 callgsubr
          238 25 hlineto
          100 -238 rlineto
          153 hlineto
          endchar
        </CharString>
        <CharString name="uni0157">
          -163 41 15 callgsubr
          235 546 309 callgsubr
        </CharString>
        <CharString name="uni015E">
          -19 147 15 callgsubr
          119 178 -67 callgsubr
        </CharString>
        <CharString name="uni015F">
          -60 129 15 callgsubr
          108 167 -64 callsubr
        </CharString>
        <CharString name="uni0162">
          133 callsubr
        </CharString>
        <CharString name="uni0163">
          133 callsubr
        </CharString>
        <CharString name="uni0218">
          -19 148 15 callgsubr
          118 178 -67 callgsubr
        </CharString>
        <CharString name="uni0219">
          -60 127 15 callgsubr
          110 167 -64 callsubr
        </CharString>
        <CharString name="uni021A">
          133 callsubr
        </CharString>
        <CharString name="uni021B">
          -190 81 350 callgsubr
          180 438 287 callsubr
        </CharString>
        <CharString name="uni02C9">
          9 63 553 rmoveto
          343 92 -343 hlineto
          endchar
        </CharString>
        <CharString name="uni0901">
          -461 -165 809 rmoveto
          105 111 -105 hlineto
          -161 -141 rmoveto
          -61 35 -32 95 vhcurveto
          167 hlineto
          96 35 32 61 hvcurveto
          79 -118 111 callsubr
          vlineto
          endchar
        </CharString>
        <CharString name="uni0902">
          -461 -166 728 rmoveto
          108 116 -108 hlineto
          endchar
        </CharString>
        <CharString name="uni0902.aMatraI">
          -461 27 658 -72 callgsubr
          endchar
        </CharString>
        <CharString name="uni0903">
          -115 373 -72 callgsubr
          -429 vmoveto
          107 116 -107 hlineto
          endchar
        </CharString>
        <CharString name="uni0905">
          200 681 636 rmoveto
          -204 -274 -113 hlineto
          -67 callsubr
          64 vlineto
          endchar
        </CharString>
        <CharString name="uni0906">
          495 callgsubr
          -433 -274 -113 hlineto
          -78 callsubr
          endchar
        </CharString>
        <CharString name="uni0907">
          -36 375 376 callgsubr
          70 97 -465 39 callsubr
          endchar
        </CharString>
        <CharString name="uni0908">
          -36 448 711 rmoveto
          89 -91 vlineto
          -92 -30 -31 -67 hvcurveto
          -66 -255 39 callsubr
          178 153 70 97 -70 52 hlineto
          18 7 5 18 vhcurveto
          endchar
        </CharString>
        <CharString name="uni09080902">
          -36 375 389 callgsubr
          -255 39 callsubr
          178 153 70 97 -70 hlineto
          34 122 427 callgsubr
        </CharString>
        <CharString name="uni0909">
          -34 441 636 rmoveto
          -461 162 callsubr
          196 vlineto
          35 -16 15 -28 3 vhcurveto
          4 vlineto
          28 3 16 16 34 vvcurveto
          109 vlineto
          10 -2 9 -5 6 vhcurveto
          72 hlineto
          endchar
        </CharString>
        <CharString name="uni090A">
          150 631 636 rmoveto
          -651 162 callsubr
          152 47 -66 callsubr
          -5 -21 hvcurveto
          -105 -47 callgsubr
          -15 -97 58 77 callsubr
          136 vlineto
          81 -40 32 -76 vhcurveto
          -140 4 hlineto
          28 3 16 16 34 vvcurveto
          109 vlineto
          10 -2 9 -5 6 vhcurveto
          262 hlineto
          endchar
        </CharString>
        <CharString name="uni090B">
          437 657 364 rmoveto
          18 7 6 18 vhcurveto
          13 hlineto
          19 6 -6 -18 hvcurveto
          -65 vlineto
          -17 -8 -6 -15 vhcurveto
          -16 hlineto
          -16 -8 6 17 hvcurveto
          -202 240 rmoveto
          463 97 -938 -97 336 -263 -12 hlineto
          508 callgsubr
          -20 callsubr
          22 -188 139 188 240 hlineto
          17 8 -5 -17 hvcurveto
          -53 vlineto
          -17 -7 36 callsubr
          -16 hlineto
          -14 -6 6 17 hvcurveto
          27 -140 -42 vlineto
          -64 28 -34 91 vhcurveto
          100 hlineto
          93 28 33 65 hvcurveto
          81 vlineto
          36 -15 15 -27 5 vhcurveto
          5 vlineto
          28 6 15 16 42 vvcurveto
          60 vlineto
          79 -36 33 -101 vhcurveto
          -69 448 callsubr
          -74 hlineto
          endchar
        </CharString>
        <CharString name="uni090C">
          203 622 42 rmoveto
          497 150 callgsubr
          -151 140 151 44 callgsubr
          55 -247 -8 hlineto
          -91 362 callsubr
          -70 vlineto
          468 callsubr
          201 97 -157 -95 callgsubr
          34 426 callsubr
        </CharString>
        <CharString name="uni090D">
          11 259 672 rmoveto
          481 callsubr
          -117 333 callgsubr
          400 -36 rmoveto
          -512 -97 65 -440 hlineto
          6 callgsubr
        </CharString>
        <CharString name="uni090E">
          11 492 636 rmoveto
          -62 287 callgsubr
          -311 -97 65 -440 vlineto
          6 callgsubr
        </CharString>
        <CharString name="uni090F">
          11 492 636 rmoveto
          -512 -97 65 -440 hlineto
          6 callgsubr
        </CharString>
        <CharString name="uni0910">
          11 492 636 rmoveto
          -67 207 callsubr
          -307 -97 65 -440 hlineto
          6 callgsubr
        </CharString>
        <CharString name="uni0911">
          495 callgsubr
          -433 -274 -113 hlineto
          -78 callsubr
          -38 319 rmoveto
          333 callgsubr
          167 hlineto
          96 34 506 callsubr
        </CharString>
        <CharString name="uni0912">
          495 callgsubr
          -65 287 callgsubr
          -229 -274 -113 vlineto
          -78 callsubr
          endchar
        </CharString>
        <CharString name="uni0913">
          495 callgsubr
          -68 207 callsubr
          -227 -274 -113 hlineto
          -78 callsubr
          endchar
        </CharString>
        <CharString name="uni0914">
          495 callgsubr
          -67 hlineto
          -23 198 rlineto
          79 callsubr
          124 -108 51 -45 30 -23 36 -22 rlinecurve
          -223 -274 -113 hlineto
          -78 callsubr
          endchar
        </CharString>
        <CharString name="uni0915">
          181 662 471 callsubr
          -682 66 callsubr
          352 -43 callsubr
          33 71 callsubr
          -40 32 -76 -27 callgsubr
        </CharString>
        <CharString name="uni0915093C">
          181 77 498 callsubr
          585 530 rmoveto
          97 -682 66 callsubr
          352 -43 callsubr
          33 71 callsubr
          -40 32 -76 -27 callgsubr
        </CharString>
        <CharString name="uni0915093C094D">
          60 84 -116 -72 callgsubr
          354 446 188 callsubr
          150 97 -561 -97 271 -337 vlineto
          -103 callgsubr
          130 97 hlineto
          endchar
        </CharString>
        <CharString name="uni0915093C094D0915093C">
          624 84 -117 -72 callgsubr
          441 -114 -72 callgsubr
          169 201 rmoveto
          -101 callsubr
          17 90 -215 -39 callsubr
          303 vlineto
          411 hmoveto
          97 -1125 66 callsubr
          352 -43 callsubr
          59 hlineto
          -4 -13 -2 -14 -12 vvcurveto
          -149 vlineto
          -100 callgsubr
        </CharString>
        <CharString name="uni0915093C094D0924">
          439 84 -116 -72 callgsubr
          622 446 rmoveto
          -268 hlineto
          232 callgsubr
          315 vlineto
          167 callsubr
          -930 -95 callsubr
          58 -2 hlineto
          -248 319 callsubr
          205 496 callgsubr
          -349 288 callgsubr
        </CharString>
        <CharString name="uni0915093C094D092B">
          635 84 -116 -72 callgsubr
          621 -47 callsubr
          -267 -93 188 callsubr
          90 -93 vlineto
          635 93 rmoveto
          97 -1136 -97 271 -337 vlineto
          -103 callgsubr
          64 -158 hlineto
          -100 callgsubr
        </CharString>
        <CharString name="uni0915093C094D092B093C">
          635 92 -116 -72 callgsubr
          461 -116 -72 callgsubr
          152 -47 callsubr
          -267 -93 188 callsubr
          90 -93 vlineto
          635 93 rmoveto
          97 -1136 -97 271 -337 vlineto
          -103 callgsubr
          64 -158 hlineto
          -100 callgsubr
        </CharString>
        <CharString name="uni0915093C094D092C">
          494 84 -116 -72 callgsubr
          572 386 rmoveto
          73 90 -291 -39 callsubr
          379 -214 vlineto
          -89 6 -24 124 callgsubr
          -96 43 -32 callsubr
          364 435 rmoveto
          -995 11 callsubr
          352 -43 callsubr
          54 -2 hlineto
          124 callsubr
          149 hlineto
          14 12 2 4 8 hvcurveto
          -84 45 callgsubr
        </CharString>
        <CharString name="uni0915093C094D092E">
          646 84 -116 -72 callgsubr
          839 24 callsubr
        </CharString>
        <CharString name="uni0915093C094D0930">
          181 206 -165 -72 callgsubr
          456 588 59 callsubr
        </CharString>
        <CharString name="uni0915093C094D0930094D">
          63 208 -163 -72 callgsubr
          359 586 rmoveto
          97 -587 0 callsubr
          322 -43 callsubr
          150 97 -129 hlineto
          232 callgsubr
          vlineto
          endchar
        </CharString>
        <CharString name="uni0915094D">
          60 438 446 188 callsubr
          150 97 -561 -97 271 -337 vlineto
          -103 callgsubr
          130 97 hlineto
          endchar
        </CharString>
        <CharString name="uni0915094D0915">
          624 694 202 rmoveto
          -101 callsubr
          17 90 -215 -39 callsubr
          303 vlineto
          411 hmoveto
          97 -1125 66 callsubr
          352 -43 callsubr
          59 hlineto
          -4 -13 -2 -14 -12 vvcurveto
          -149 vlineto
          -100 callgsubr
        </CharString>
        <CharString name="uni0915094D0916">
          798 672 365 rmoveto
          -26 -8 -7 -26 vhcurveto
          -23 114 -177 hlineto
          232 callgsubr
          247 vlineto
          26 8 4 callsubr
          607 130 rmoveto
          -1299 -95 callsubr
          58 -245 hlineto
          -4 callsubr
        </CharString>
        <CharString name="uni0915094D091A">
          421 698 202 rmoveto
          -21 -8 -6 -19 vhcurveto
          -38 -98 callgsubr
          122 vlineto
          24 8 2 26 vhcurveto
          19 97 -223 hlineto
          232 callgsubr
          307 vlineto
          167 callsubr
          -922 -95 callsubr
          65 357 callgsubr
          -113 vlineto
          -81 39 48 callsubr
          68 256 callsubr
          539 65 vlineto
          endchar
        </CharString>
        <CharString name="uni0915094D091C">
          629 906 476 rmoveto
          -215 -275 hlineto
          -21 240 callgsubr
          -23 2 callgsubr
          275 -177 vlineto
          -61 callgsubr
          77 515 vlineto
          167 callsubr
          -1130 11 callsubr
          352 -43 callsubr
          58 -188 hlineto
          -2 callsubr
          37 32 81 hvcurveto
          188 75 246 callgsubr
        </CharString>
        <CharString name="uni0915094D091F">
          414 689 476 rmoveto
          -251 -39 callsubr
          298 vlineto
          140 -160 rmoveto
          160 66 97 -915 66 callsubr
          352 -43 callsubr
          58 -2 hlineto
          -264 111 callgsubr
        </CharString>
        <CharString name="uni0915094D0923">
          643 698 201 rmoveto
          -21 240 callgsubr
          -23 2 callgsubr
          338 76 vlineto
          -260 -93 188 callsubr
          91 -93 vlineto
          642 190 rmoveto
          -1144 -95 callsubr
          65 -158 hlineto
          -2 callsubr
          37 32 81 hvcurveto
          348 82 -539 -96 callgsubr
        </CharString>
        <CharString name="uni0915094D0924">
          218 699 471 callsubr
          -719 -97 308 -77 vlineto
          9 -9 -15 5 -23 hhcurveto
          -235 -97 75 hlineto
          -11 -8 -6 -14 -22 vvcurveto
          -158 vlineto
          -67 423 callgsubr
          61 90 438 callgsubr
          162 -49 callgsubr
          18 vhcurveto
          33 hlineto
          18 509 callgsubr
          -352 -10 callgsubr
          -18 -90 62 hlineto
          92 431 callgsubr
          -14 -4 -10 -9 hvcurveto
          77 vlineto
          endchar
        </CharString>
        <CharString name="uni0915094D0924094D092F">
          779 1056 65 callsubr
          118 46 callgsubr
          76 267 callgsubr
          -100 262 callsubr
          -384 -65 callgsubr
          137 419 vlineto
          31 197 callgsubr
          -1280 11 callsubr
          292 -43 callsubr
          62 -2 hlineto
          -218 319 callsubr
          175 496 callgsubr
          -128 hlineto
          450 callgsubr
          -92 -65 callsubr
        </CharString>
        <CharString name="uni0915094D0924094D0930">
          448 725 276 rmoveto
          -12 hlineto
          508 callgsubr
          50 -32 -23 17 -62 hhcurveto
          -77 -65 callgsubr
          81 334 vlineto
          167 callsubr
          -949 11 callsubr
          349 -43 callsubr
          38 hlineto
          24 12 -6 -29 17 hvcurveto
          64 -106 380 callsubr
          65 hlineto
          endchar
        </CharString>
        <CharString name="uni0915094D0924094D0935">
          646 922 -40 callsubr
          132 -80 callsubr
          18 90 -444 hlineto
          232 callgsubr
          531 vlineto
          205 97 rmoveto
          -1147 -95 callsubr
          65 hlineto
          -4 -5 -3 -9 -9 vvcurveto
          -227 319 callsubr
          205 496 callgsubr
          hlineto
          -5 -5 -2 -9 -9 vvcurveto
          -135 vlineto
          -81 39 48 callsubr
          62 hlineto
          23 14 461 callsubr
        </CharString>
        <CharString name="uni0915094D0925">
          560 1041 636 394 callgsubr
          -155 -98 callgsubr
          90 18 vlineto
          93 29 39 67 hvcurveto
          146 vlineto
          68 -36 30 -79 vhcurveto
          -47 hlineto
          -78 426 callgsubr
          7 -5 -18 hvcurveto
          -110 -47 callgsubr
          -159 -65 callgsubr
          165 55 97 -466 66 callsubr
          264 -43 callsubr
          65 -100 hlineto
          -81 43 -32 93 vhcurveto
          174 hlineto
          21 28 callsubr
        </CharString>
        <CharString name="uni0915094D0926">
          415 391 539 rmoveto
          301 -81 -254 -65 callgsubr
          441 -83 rmoveto
          178 66 97 -918 66 callsubr
          334 -43 callsubr
          58 -2 hlineto
          -168 vlineto
          -81 36 -32 100 vhcurveto
          210 callsubr
          -92 140 274 -140 -72 138 callsubr
          -7 5 21 hvcurveto
          134 vlineto
          21 244 callgsubr
          endchar
        </CharString>
        <CharString name="uni0915094D0928">
          621 898 446 rmoveto
          -460 hlineto
          232 callgsubr
          507 vlineto
          -208 -338 rmoveto
          381 callsubr
          50 hlineto
          412 287 rmoveto
          -1122 -95 callsubr
          58 -2 hlineto
          -156 188 callgsubr
          158 69 -349 -65 callsubr
        </CharString>
        <CharString name="uni0915094D092A">
          428 707 -47 callsubr
          -269 -93 188 callsubr
          93 -93 vlineto
          427 190 rmoveto
          -931 -95 callsubr
          67 -158 236 callsubr
        </CharString>
        <CharString name="uni0915094D092A094D0930">
          428 705 143 callsubr
          -267 -93 188 callsubr
          91 -93 vlineto
          427 190 rmoveto
          -929 -95 callsubr
          65 -135 hlineto
          381 callgsubr
          539 64 vlineto
          endchar
        </CharString>
        <CharString name="uni0915094D092B">
          635 705 -47 callsubr
          -267 -93 188 callsubr
          90 -93 vlineto
          635 93 rmoveto
          97 -1136 -97 271 -337 vlineto
          -103 callgsubr
          64 -158 hlineto
          -100 callgsubr
        </CharString>
        <CharString name="uni0915094D092E">
          646 923 24 callsubr
        </CharString>
        <CharString name="uni0915094D092F">
          542 819 51 callsubr
          89 13 vlineto
          92 -25 callsubr
          87 hlineto
          -209 -129 262 callsubr
          -147 -65 callgsubr
          166 182 vlineto
          31 197 callgsubr
          -1043 11 callsubr
          263 -43 callsubr
          56 -99 hlineto
          450 callgsubr
          -92 -65 callsubr
        </CharString>
        <CharString name="uni0915094D0930">
          181 662 539 59 callsubr
        </CharString>
        <CharString name="uni0915094D0930.aTrad">
          245 726 471 callsubr
          -746 -97 336 -263 -12 vlineto
          508 callgsubr
          -20 callsubr
          22 -188 139 343 hlineto
          209 callgsubr
          -153 -47 callgsubr
          -18 464 callsubr
          177 vlineto
          81 -40 31 -76 vhcurveto
          -61 -65 callgsubr
          87 vlineto
          endchar
        </CharString>
</ttFont>
